<?xml version="1.0" encoding="utf-8"?>
<!-- Generator: Adobe Illustrator 21.0.0, SVG Export Plug-In . SVG Version: 6.00 Build 0)  -->
<svg version="1.1" id="Calque_1" xmlns="http://www.w3.org/2000/svg" xmlns:xlink="http://www.w3.org/1999/xlink" x="0px" y="0px"
	 viewBox="0 0 283.5 283.5" style="enable-background:new 0 0 283.5 283.5;" xml:space="preserve">
<style type="text/css">
	.st0{fill:#1D1D1B;}
	.st1{fill:#FFFFFF;}
</style>
<title>icons</title>
<path class="st0" d="M141.7,249.3c-57.5,0-104.2-46.7-104.2-104.2c0-57.5,46.7-104.2,104.2-104.2s104.2,46.7,104.2,104.2
	C245.9,202.6,199.2,249.3,141.7,249.3z M141.7,50.9c-51.9,0-94.2,42.3-94.2,94.2c0,51.9,42.3,94.2,94.2,94.2s94.2-42.3,94.2-94.2
	C235.9,93.1,193.7,50.9,141.7,50.9z"/>
<path class="st0" d="M182.8,108.6c-0.7,0-1.4-0.2-2-0.6l-31.3-18.6c-1.9-1.1-2.5-3.6-1.4-5.5c1.1-1.9,3.6-2.5,5.5-1.4l31.3,18.6
	c1.9,1.1,2.5,3.6,1.4,5.5C185.5,107.9,184.2,108.6,182.8,108.6z"/>
<path class="st0" d="M86.8,167.4c-1,0-2-0.4-2.8-1.2c-1.6-1.6-1.6-4.1,0-5.7l11.3-11.3c1.6-1.6,4.1-1.6,5.7,0c1.6,1.6,1.6,4.1,0,5.7
	l-11.3,11.3C88.8,167,87.8,167.4,86.8,167.4z"/>
<path class="st0" d="M196.7,167.4c-1,0-2-0.4-2.8-1.2l-11.3-11.3c-1.6-1.6-1.6-4.1,0-5.7c1.6-1.6,4.1-1.6,5.7,0l11.3,11.3
	c1.6,1.6,1.6,4.1,0,5.7C198.7,167,197.7,167.4,196.7,167.4z"/>
<path class="st0" d="M182.8,194.1h-82.2c-2.2,0-4-1.8-4-4V86.1c0-2.2,1.8-4,4-4h50.9c2.2,0,4,1.8,4,4s-1.8,4-4,4h-46.9v96.1h74.2
	v-81.5c0-2.2,1.8-4,4-4s4,1.8,4,4v85.5C186.8,192.3,185,194.1,182.8,194.1z"/>
<path class="st0" d="M165.6,118.9c-0.4,0-0.8-0.1-1.1-0.2c-1.1-0.3-2-1.1-2.5-2.1l-14.1-28.9c-1-2-0.1-4.4,1.8-5.3
	c2-1,4.4-0.1,5.3,1.8l12.1,24.9l13.5-8c1.9-1.1,4.4-0.5,5.5,1.4c1.1,1.9,0.5,4.4-1.4,5.5l-17.3,10.3
	C167,118.7,166.3,118.9,165.6,118.9z"/>
<g>
	<path class="st1" d="M156.7,163.4c0,8.3-6.7,15-15,15s-15-6.7-15-15H86.8v39.8h109.9v-39.8H156.7z"/>
	<path class="st0" d="M196.7,207.2H86.8c-2.2,0-4-1.8-4-4v-39.8c0-2.2,1.8-4,4-4h39.9c2.2,0,4,1.8,4,4c0,6.1,4.9,11,11,11
		s11-4.9,11-11c0-2.2,1.8-4,4-4h39.9c2.2,0,4,1.8,4,4v39.8C200.7,205.4,198.9,207.2,196.7,207.2z M90.8,199.2h101.9v-31.8h-32.3
		c-1.8,8.6-9.5,15-18.6,15c-9.1,0-16.7-6.4-18.6-15H90.8V199.2z"/>
</g>
</svg>
