<?xml version="1.0" encoding="utf-8"?>
<!-- Generator: Adobe Illustrator 21.0.0, SVG Export Plug-In . SVG Version: 6.00 Build 0)  -->
<svg version="1.1" id="Calque_1" xmlns="http://www.w3.org/2000/svg" xmlns:xlink="http://www.w3.org/1999/xlink" x="0px" y="0px"
	 viewBox="0 0 283.5 283.5" style="enable-background:new 0 0 283.5 283.5;" xml:space="preserve">
<style type="text/css">
	.st0{fill:#1D1D1B;}
</style>
<title>icons</title>
<path class="st0" d="M141.7,249.3c-57.5,0-104.2-46.7-104.2-104.2c0-57.5,46.7-104.2,104.2-104.2s104.2,46.7,104.2,104.2
	C245.9,202.6,199.2,249.3,141.7,249.3z M141.7,50.9c-51.9,0-94.2,42.3-94.2,94.2c0,51.9,42.3,94.2,94.2,94.2s94.2-42.3,94.2-94.2
	C235.9,93.1,193.7,50.9,141.7,50.9z"/>
<path class="st0" d="M141.7,175.1c-13.5,0-24.5-12.1-24.5-27v-45.3c0-14.9,11-27,24.5-27s24.4,12.1,24.4,27v45.3
	C166.2,163,155.2,175.1,141.7,175.1z M141.7,83.9c-9.1,0-16.5,8.5-16.5,19v45.3c0,10.5,7.4,19,16.5,19s16.4-8.5,16.4-19v-45.3
	C158.2,92.4,150.8,83.9,141.7,83.9z"/>
<path class="st0" d="M141.7,186c-19.5-0.1-35.3-15.9-35.4-35.3v-21.7c0-2.2,1.8-4,4-4s4,1.8,4,4v21.7c0,15,12.3,27.3,27.4,27.4
	c15,0,27.3-12.3,27.3-27.4v-21.7c0-2.2,1.8-4,4-4s4,1.8,4,4v21.7C177,170.1,161.2,185.9,141.7,186z"/>
<rect x="121.3" y="121.5" class="st0" width="40.9" height="8"/>
<path class="st0" d="M141.7,214.3c-2.2,0-4-1.8-4-4v-26.9c0-2.2,1.8-4,4-4c2.2,0,4,1.8,4,4v26.9
	C145.7,212.5,143.9,214.3,141.7,214.3z"/>
<path class="st0" d="M165.1,214.3h-46.8c-2.2,0-4-1.8-4-4s1.8-4,4-4h46.8c2.2,0,4,1.8,4,4S167.3,214.3,165.1,214.3z"/>
</svg>
