<?xml version="1.0" encoding="utf-8"?>
<!-- Generator: Adobe Illustrator 21.0.0, SVG Export Plug-In . SVG Version: 6.00 Build 0)  -->
<svg version="1.1" id="Calque_1" xmlns="http://www.w3.org/2000/svg" xmlns:xlink="http://www.w3.org/1999/xlink" x="0px" y="0px"
	 viewBox="0 0 283.5 283.5" style="enable-background:new 0 0 283.5 283.5;" xml:space="preserve">
<style type="text/css">
	.st0{fill:#1D1D1B;}
</style>
<title>icons</title>
<path class="st0" d="M83,229.6c-1,0-2.1-0.3-3-1l-0.4-0.3c-2.2-1.7-2.7-4.8-1-7c1.7-2.2,4.8-2.7,7-1l0.4,0.3c2.2,1.7,2.7,4.8,1,7
	C86,228.9,84.5,229.6,83,229.6z"/>
<path class="st0" d="M143.7,248.9c-2.7,0-4.9-2.2-5-4.9c-0.1-2.8,2.1-5,4.9-5.1l0.9,0c2.7-0.1,5.1,2.1,5.2,4.8
	c0.1,2.8-2.1,5.1-4.8,5.2l-1,0C143.7,248.9,143.7,248.9,143.7,248.9z M122.8,247.1c-0.3,0-0.6,0-0.9-0.1c-0.3-0.1-0.7-0.1-1-0.2
	c-2.7-0.6-4.5-3.2-3.9-5.9s3.2-4.4,5.9-3.9c0.3,0.1,0.6,0.1,0.9,0.2c2.7,0.5,4.5,3.1,4,5.9C127.3,245.4,125.2,247.1,122.8,247.1z
	 M165.3,246c-2.2,0-4.3-1.5-4.8-3.8c-0.7-2.7,1-5.4,3.7-6.1l0.9-0.2c2.7-0.7,5.4,0.9,6.1,3.6c0.7,2.7-0.9,5.4-3.6,6.1l-1,0.2
	C166.1,246,165.7,246,165.3,246z M101.9,240.6c-0.7,0-1.3-0.1-2-0.4c-0.3-0.1-0.6-0.3-0.9-0.4c-2.5-1.1-3.6-4.1-2.5-6.6
	s4.1-3.6,6.6-2.5c0.3,0.1,0.5,0.2,0.8,0.4c2.5,1.1,3.7,4,2.6,6.6C105.7,239.4,103.9,240.6,101.9,240.6z M185.9,238.5
	c-1.8,0-3.6-1-4.5-2.8c-1.2-2.5-0.2-5.5,2.3-6.7l0.8-0.4c2.5-1.2,5.5-0.3,6.7,2.2c1.3,2.5,0.3,5.5-2.2,6.7l-0.9,0.4
	C187.4,238.3,186.6,238.5,185.9,238.5z M204.3,226.7c-1.5,0-2.9-0.6-3.9-1.8c-1.7-2.1-1.4-5.3,0.7-7l0.7-0.6c2.1-1.8,5.3-1.5,7,0.7
	c1.8,2.1,1.5,5.3-0.7,7l-0.8,0.6C206.5,226.3,205.4,226.7,204.3,226.7z M219.6,211.1c-1.1,0-2.2-0.4-3.1-1.1c-2.2-1.7-2.5-4.9-0.8-7
	l0.6-0.7c1.7-2.2,4.8-2.6,7-0.9c2.2,1.7,2.6,4.8,0.9,7l-0.6,0.8C222.6,210.5,221.1,211.1,219.6,211.1z M231.2,192.6
	c-0.7,0-1.5-0.2-2.2-0.5c-2.5-1.2-3.5-4.2-2.3-6.7c0.1-0.3,0.3-0.5,0.4-0.8c1.2-2.5,4.1-3.6,6.6-2.4c2.5,1.2,3.6,4.1,2.4,6.6
	c-0.1,0.3-0.3,0.6-0.4,0.9C234.8,191.5,233,192.6,231.2,192.6z M238.4,171.9c-0.4,0-0.8,0-1.1-0.1c-2.7-0.6-4.4-3.3-3.7-6l0.2-0.9
	c0.6-2.7,3.3-4.4,6-3.8c2.7,0.6,4.4,3.3,3.8,6l-0.2,1C242.8,170.4,240.7,171.9,238.4,171.9z"/>
<path class="st0" d="M240.9,150.2c-2.8,0-5-2.2-5-5v-0.5c0-2.8,2.2-5,5-5s5,2.2,5,5v0.5C245.9,147.9,243.7,150.2,240.9,150.2z"/>
<path class="st0" d="M82.6,229.3c-1,0-2.1-0.3-3-1c-11.1-8.2-20.3-18.4-27.3-30.3c-14.3-23.9-18.4-51.9-11.5-78.9
	c6.8-27,23.7-49.7,47.7-64c23.9-14.3,51.9-18.4,78.9-11.5c27,6.8,49.7,23.7,64,47.7c1.4,2.4,0.6,5.4-1.7,6.9
	c-2.4,1.4-5.4,0.6-6.9-1.7c-12.9-21.6-33.4-36.9-57.8-43.1c-24.4-6.2-49.7-2.5-71.4,10.4c-21.6,12.9-36.9,33.4-43.1,57.8
	C44.3,146,48,171.3,60.9,193c6.4,10.7,14.7,19.9,24.7,27.4c2.2,1.6,2.7,4.8,1,7C85.6,228.6,84.1,229.3,82.6,229.3z"/>
<path class="st0" d="M230.8,102.8c-0.3,0-0.5,0-0.8-0.1l-40.4-6.5c-2.7-0.4-4.6-3-4.1-5.7c0.4-2.7,3-4.6,5.7-4.1l34.7,5.6l0.5-35.1
	c0-2.7,2.3-4.9,5-4.9c0,0,0,0,0.1,0c2.8,0,5,2.3,4.9,5.1l-0.6,40.9c0,1.5-0.7,2.8-1.8,3.8C233.1,102.4,232,102.8,230.8,102.8z"/>
</svg>
