<?xml version="1.0" encoding="utf-8"?>
<!-- Generator: Adobe Illustrator 21.0.0, SVG Export Plug-In . SVG Version: 6.00 Build 0)  -->
<svg version="1.1" id="Calque_1" xmlns="http://www.w3.org/2000/svg" xmlns:xlink="http://www.w3.org/1999/xlink" x="0px" y="0px"
	 viewBox="0 0 283.5 283.5" style="enable-background:new 0 0 283.5 283.5;" xml:space="preserve">
<style type="text/css">
	.st0{fill:#FFD400;}
	.st1{fill:none;stroke:#FFB600;stroke-width:17;stroke-linecap:round;stroke-linejoin:round;stroke-miterlimit:10;}
	.st2{fill:#FFB600;}
	.st3{fill:#1D1D1B;}
	.st4{fill:url(#);}
</style>
<polygon class="st0" points="54.1,94.4 54.1,195.8 141.9,246.4 229.6,195.8 229.6,94.4 141.9,43.7 "/>
<polyline class="st1" points="116.2,205.5 118.2,206.7 143.7,221.4 209.8,183.2 209.8,107 143.7,68.8 116.4,84.6 "/>
<g>
	<path class="st2" d="M100.9,134.5l-0.8,6.4v2.2c0,7.1,0.2,11.8,0.5,14.1c0.3,2.3,0.6,4.4,1,6.2c0.3,1.8,0.8,3.4,1.3,4.7
		c0.5,1.3,1.1,2.5,1.9,3.6c1.4,2.3,3.4,3.4,6,3.4c1,0,2.3-0.5,3.9-1.6c1.6-1.1,2.7-1.6,3.5-1.6s1.7,0.5,2.6,1.4
		c0,3.1-1.8,5.3-5.3,6.6c-1.7,0.6-3.6,0.9-5.7,0.9s-3.8-0.4-5.2-1.2c-1.4-0.8-2.6-1.9-3.6-3.2c-1-1.3-1.8-3-2.5-5
		c-0.7-2-1.3-4.1-1.7-6.1c-0.4-2-0.7-4.4-0.9-7c-0.4-4.4-0.6-9.3-0.6-14.5l0.1-11c0-3.5,0.2-6.3,0.6-8.5c-0.2-1-0.3-1.9-0.3-2.9
		c0-3.8,1.4-6.8,4.2-9c2.8-2.2,6.3-3.3,10.4-3.3c1.5,0,2.9,0.4,4.3,1.2c1.4,0.8,2.1,1.9,2.1,3.3c0,0.7-0.3,1.2-0.8,1.5
		s-1.4,0.5-2.6,0.5s-2-0.4-2.5-1.1v0h-1.3v-0.2c-3.6,0-6,1.1-7.3,3.3c-1.2,2-1.8,5.5-1.8,10.5L100.9,134.5z"/>
	<path class="st2" d="M130.8,144.6l0.1,2.9v0.4c0.2,5.3,0.4,13.3,0.4,24v2.3h7c1.3,0.9,2,1.8,2,2.6c0,0.8-0.2,1.5-0.7,2
		c-0.4,0.5-0.9,0.8-1.4,0.8c-0.5,0-1-0.1-1.7-0.3c-0.5,0.1-1.1,0.2-1.8,0.2l-3-0.1c-0.6,0.7-1.4,1.1-2.4,1.1c-0.9,0-1.7-0.3-2.4-0.9
		c-0.6-0.6-1-1.3-1-2l0.6-4c0-7-0.3-17.4-0.9-31.4c-0.6-13.9-0.9-24.4-0.9-31.4c0-0.6,0.2-1,0.7-1.4c0.4-0.3,1-0.5,1.7-0.5
		c0.7,0,1.3,0.3,1.8,0.8c0.6,0.5,0.8,1.1,0.8,1.9L130.8,144.6z"/>
	<path class="st2" d="M155,114.6l-1.6,0c-0.6,0-1,0.1-1.3,0.4c-0.3,0.3-0.4,0.8-0.4,1.5c0,6,0.4,15,1.1,26.9s1.1,20.9,1.1,26.9v3.5
		c0.6-0.1,1.3-0.1,1.9-0.1c2.5,0,3.8,1.1,3.8,3.2v0.5l-2.3,1.6l-6.2,0.2c-5.3,0-7.9-0.9-7.9-2.7c0-1.5,0.9-2.2,2.8-2.2l1.9,0.1
		c0.9,0,1.3-0.7,1.3-2.2c0-4.7-0.3-11.8-0.9-21.3c-0.6-9.4-0.9-16.5-0.9-21.3l0.2-9.4c0-2-0.1-3.7-0.2-5.1c-0.8,0.3-1.5,0.4-2.2,0.4
		c-1.4,0-2.2-0.7-2.2-2.2c0-0.7,0.5-1.4,1.4-2c0.9-0.6,2.1-0.9,3.5-1.2c2.6-0.4,4.5-0.7,5.7-0.7s2.1,0.2,2.7,0.7
		c0.5,0.5,0.8,1.1,0.8,1.8c0,0.7-0.2,1.3-0.6,1.8S155.6,114.6,155,114.6z"/>
	<path class="st2" d="M168.8,134.5L168,141v2.2c0,7.1,0.2,11.8,0.5,14.1c0.3,2.3,0.6,4.4,1,6.2c0.3,1.8,0.8,3.4,1.3,4.7
		c0.5,1.3,1.1,2.5,1.9,3.6c1.4,2.3,3.4,3.4,6,3.4c1,0,2.3-0.5,3.9-1.6c1.6-1.1,2.7-1.6,3.5-1.6c0.8,0,1.7,0.5,2.6,1.4
		c0,3.1-1.8,5.3-5.3,6.6c-1.7,0.6-3.6,0.9-5.7,0.9c-2,0-3.8-0.4-5.2-1.2s-2.6-1.9-3.6-3.2c-1-1.3-1.8-3-2.5-5
		c-0.7-2-1.3-4.1-1.7-6.1c-0.4-2-0.7-4.4-0.9-7c-0.4-4.4-0.6-9.3-0.6-14.5l0.1-11c0-3.5,0.2-6.3,0.6-8.5c-0.2-1-0.3-1.9-0.3-2.9
		c0-3.8,1.4-6.8,4.2-9c2.8-2.2,6.3-3.3,10.4-3.3c1.5,0,2.9,0.4,4.3,1.2c1.4,0.8,2.1,1.9,2.1,3.3c0,0.7-0.3,1.2-0.8,1.5
		c-0.5,0.4-1.4,0.5-2.6,0.5s-2-0.4-2.5-1.1v0h-1.3v-0.2c-3.6,0-6,1.1-7.3,3.3c-1.2,2-1.8,5.5-1.8,10.5L168.8,134.5z"/>
</g>
</svg>
