<?xml version="1.0" encoding="utf-8"?>
<!-- Generator: Adobe Illustrator 21.0.0, SVG Export Plug-In . SVG Version: 6.00 Build 0)  -->
<svg version="1.1" id="Calque_1" xmlns="http://www.w3.org/2000/svg" xmlns:xlink="http://www.w3.org/1999/xlink" x="0px" y="0px"
	 viewBox="0 0 283.5 283.5" style="enable-background:new 0 0 283.5 283.5;" xml:space="preserve">
<style type="text/css">
	.st0{fill:#1D1D1B;}
	.st1{fill:#FFFFFF;}
</style>
<title>icons</title>
<path class="st0" d="M141.7,166.2c-22.3,0-40.5-18.2-40.5-40.5c0-22.3,18.2-40.5,40.5-40.5c22.3,0,40.5,18.2,40.5,40.5
	c0,2.8-2.2,5-5,5s-5-2.2-5-5c0-16.8-13.7-30.5-30.5-30.5c-16.8,0-30.5,13.7-30.5,30.5s13.7,30.5,30.5,30.5c2.8,0,5,2.2,5,5
	S144.5,166.2,141.7,166.2z"/>
<path class="st0" d="M88.3,230.8c-2.5,0-4.7-1.9-5-4.4c-0.3-2.5-0.4-5-0.4-7.6c0-34.5,26.4-62.6,58.9-62.6c2.8,0,5,2.2,5,5
	s-2.2,5-5,5c-26.9,0-48.9,23.6-48.9,52.6c0,2.1,0.1,4.3,0.4,6.4c0.3,2.7-1.7,5.2-4.4,5.5C88.6,230.8,88.4,230.8,88.3,230.8z"/>
<path class="st0" d="M141.9,249.3c-34.6,0-68.4-17.2-88.2-48.5c-14.9-23.5-19.7-51.4-13.6-78.6S62.6,72,86.1,57.1
	c48.5-30.7,113-16.2,143.7,32.4c10.4,16.5,16,35.5,16.1,54.9c0.1,19.5-5.2,38.6-15.3,55.2c-1.4,2.4-4.5,3.1-6.9,1.7
	c-2.4-1.4-3.1-4.5-1.7-6.9c9.2-15,14-32.3,13.9-49.9c-0.1-17.6-5.2-34.8-14.6-49.7c-27.8-43.9-86-57-129.9-29.3
	c-21.3,13.4-36,34.4-41.5,58.9c-5.5,24.5-1.2,49.8,12.3,71c27.8,43.9,86,57,129.9,29.3c2.3-1.5,5.4-0.8,6.9,1.6
	c1.5,2.3,0.8,5.4-1.6,6.9C180.2,244.1,161,249.3,141.9,249.3z"/>
<g>
	<rect x="158.6" y="169.4" class="st1" width="49.7" height="43.1"/>
	<path class="st0" d="M208.3,216.5h-49.7c-2.2,0-4-1.8-4-4v-43.1c0-2.2,1.8-4,4-4h49.7c2.2,0,4,1.8,4,4v43.1
		C212.3,214.7,210.5,216.5,208.3,216.5z M162.6,208.5h41.7v-35.1h-41.7V208.5z"/>
</g>
<path class="st0" d="M208.3,173.4c-2.2,0-4-1.8-4-4v-8.9c0-8.5-7-15.5-15.5-15.5h-10.6c-8.5,0-15.5,7-15.5,15.5v8.8c0,2.2-1.8,4-4,4
	s-4-1.8-4-4v-8.9c0-12.9,10.6-23.5,23.5-23.5h10.7c12.9,0,23.5,10.6,23.5,23.5v8.9C212.3,171.6,210.5,173.4,208.3,173.4z"/>
<circle class="st0" cx="183.5" cy="186.7" r="6.3"/>
<path class="st0" d="M188.6,201.4h-10.2c-0.8-0.1-1.4-0.8-1.4-1.7c0-0.1,0-0.2,0.1-0.3l1.8-8.7c0.1-0.6,0.6-1.1,1.3-1.2h6.6
	c0.7,0,1.2,0.5,1.3,1.2l1.8,8.7c0.2,0.8-0.2,1.6-1,1.9C188.8,201.4,188.7,201.4,188.6,201.4z"/>
</svg>
