<?xml version="1.0" encoding="utf-8"?>
<!-- Generator: Adobe Illustrator 21.0.0, SVG Export Plug-In . SVG Version: 6.00 Build 0)  -->
<svg version="1.1" xmlns="http://www.w3.org/2000/svg" xmlns:xlink="http://www.w3.org/1999/xlink" x="0px" y="0px"
	 viewBox="0 0 283.5 283.5" style="enable-background:new 0 0 283.5 283.5;" xml:space="preserve">
<style type="text/css">
	.st0{clip-path:url(#SVGID_2_);fill:none;stroke:#1D1D1B;stroke-width:8;stroke-linejoin:round;stroke-miterlimit:10;}
	.st1{fill:none;stroke:#1D1D1B;stroke-width:10;stroke-miterlimit:10;}
	.st2{fill:none;stroke:#1D1D1B;stroke-width:8;stroke-linecap:round;stroke-linejoin:round;stroke-miterlimit:10;}
	.st3{fill:none;stroke:#1D1D1B;stroke-width:10;stroke-linecap:round;stroke-linejoin:round;}
	.st4{fill:none;stroke:#1D1D1B;stroke-width:10;stroke-linecap:round;stroke-linejoin:round;stroke-dasharray:0.9527,20.9601;}
	.st5{fill:none;stroke:#1D1D1B;stroke-width:10;stroke-linecap:round;stroke-linejoin:round;stroke-miterlimit:10;}
	.st6{fill:#1D1D1B;}
	.st7{fill:#FFFFFF;stroke:#1D1D1B;stroke-width:5;stroke-linecap:round;stroke-linejoin:round;stroke-miterlimit:10;}
	.st8{fill:none;stroke:#1D1D1B;stroke-width:8;stroke-linejoin:round;stroke-miterlimit:10;}
	.st9{fill:none;stroke:#1D1D1B;stroke-width:8;stroke-miterlimit:10;}
	.st10{fill:none;stroke:#1D1D1B;stroke-width:4;stroke-linecap:round;stroke-linejoin:round;stroke-miterlimit:10;}
	.st11{fill:none;stroke:#1D1D1B;stroke-width:17;stroke-linecap:round;stroke-miterlimit:10;}
	.st12{fill:none;stroke:#1D1D1B;stroke-width:8;stroke-linecap:round;stroke-miterlimit:10;}
	.st13{fill:none;stroke:#1D1D1B;stroke-width:10;stroke-linecap:round;stroke-miterlimit:10;}
	.st14{fill:#FFFFFF;stroke:#1D1D1B;stroke-width:8;stroke-linecap:round;stroke-linejoin:round;stroke-miterlimit:10;}
	.st15{clip-path:url(#SVGID_4_);fill:none;stroke:#1D1D1B;stroke-width:8;stroke-linejoin:round;stroke-miterlimit:10;}
	.st16{fill:#FFFFFF;}
</style>
<g id="Calque_1">
	<g>
		<path class="st13" d="M141.7,161.2c-19.6,0-35.5-15.9-35.5-35.5s15.9-35.5,35.5-35.5s35.5,15.9,35.5,35.5"/>
		<path class="st13" d="M88.3,225.8c-0.3-2.3-0.4-4.6-0.4-7c0-31.8,24.1-57.6,53.9-57.6"/>
	</g>
	<path class="st13" d="M194.8,228.9c-15.3,9.7-33.5,15.4-53,15.4c-54.8,0-99.2-44.4-99.2-99.2s44.4-99.2,99.2-99.2
		s99.2,44.4,99.2,99.2c0,19-5.4,36.8-14.6,51.9"/>
	<g>
		<rect x="158.6" y="169.4" class="st2" width="49.7" height="43.1"/>
		<path class="st12" d="M208.3,169.4v-8.9c0-10.7-8.8-19.5-19.5-19.5h-10.6c-10.7,0-19.5,8.8-19.5,19.5v8.9"/>
		<circle class="st6" cx="183.5" cy="186.7" r="6.3"/>
		<path class="st6" d="M188.6,201.4h-10.2c-0.9,0-1.5-0.9-1.3-1.9l1.8-8.7c0.1-0.7,0.7-1.2,1.3-1.2h6.6c0.6,0,1.2,0.5,1.3,1.2
			l1.8,8.7C190.1,200.5,189.5,201.4,188.6,201.4z"/>
	</g>
</g>
<g id="Calque_2">
</g>
</svg>
