<?xml version="1.0" encoding="utf-8"?>
<!-- Generator: Adobe Illustrator 21.0.0, SVG Export Plug-In . SVG Version: 6.00 Build 0)  -->
<svg version="1.1" id="Calque_1" xmlns="http://www.w3.org/2000/svg" xmlns:xlink="http://www.w3.org/1999/xlink" x="0px" y="0px"
	 viewBox="0 0 283.5 283.5" style="enable-background:new 0 0 283.5 283.5;" xml:space="preserve">
<style type="text/css">
	.st0{fill:#FFD400;}
	.st1{fill:none;stroke:#FFB600;stroke-width:17;stroke-linecap:round;stroke-linejoin:round;stroke-miterlimit:10;}
	.st2{fill:#FFB600;}
	.st3{fill:#1D1D1B;}
	.st4{fill:url(#);}
</style>
<polygon class="st0" points="54,91.1 54,192.4 141.7,243.1 229.5,192.4 229.5,91.1 141.7,40.4 "/>
<polyline class="st1" points="116.1,202.2 118,203.3 143.5,218 209.6,179.9 209.6,103.6 143.5,65.4 116.3,81.2 "/>
<g>
	<path class="st2" d="M150.8,182.7l-17.1,1c-1.1,0-2-0.3-2.9-0.9c-0.8-0.6-1.3-1.4-1.3-2.5v-0.4c1.6-1.9,2.9-4.3,4-7.4
		c1.1-3.1,1.8-5.1,2.3-6c4.3-9.5,7.5-18.2,9.6-26.1c2.1-7.9,3.1-16.5,3.1-25.6s-1.8-13.9-5.4-14.2c-1.2,0.7-2.1,2.5-2.5,5.4
		c-0.4,2.7-1.6,4.1-3.4,4.1c-1.8,0-2.7-1.2-2.7-3.5c0-3.7,1.1-6.6,3.2-8.9c1.2-1.2,2.5-1.9,4.1-1.9v-0.1c3.9,0,6.7,1.2,8.5,3.6
		c1.3,1.8,2.1,3.4,2.4,4.8c0.3,1.4,0.6,2.6,0.7,3.4c0.1,0.8,0.2,1.9,0.3,3.2c0.1,2,0.2,4.9,0.2,8.6s-0.7,8.7-2,14.7
		c-1.3,6-2.8,11.2-4.3,15.4c-1.6,4.2-3.5,9.2-5.8,15.1c-2.3,5.9-4,10.4-5.1,13.5c4.5-0.8,9-1.2,13.3-1.2c1.6,1.1,2.4,2.2,2.4,3
		S151.8,181.8,150.8,182.7z"/>
</g>
</svg>
