<?xml version="1.0" encoding="utf-8"?>
<!-- Generator: Adobe Illustrator 21.0.0, SVG Export Plug-In . SVG Version: 6.00 Build 0)  -->
<svg version="1.1" id="Calque_1" xmlns="http://www.w3.org/2000/svg" xmlns:xlink="http://www.w3.org/1999/xlink" x="0px" y="0px"
	 viewBox="0 0 283.5 283.5" style="enable-background:new 0 0 283.5 283.5;" xml:space="preserve">
<style type="text/css">
	.st0{fill:#1D1D1B;}
</style>
<title>icons</title>
<path class="st0" d="M141.7,249.3c-57.5,0-104.2-46.7-104.2-104.2c0-57.5,46.7-104.2,104.2-104.2s104.2,46.7,104.2,104.2
	C245.9,202.6,199.2,249.3,141.7,249.3z M141.7,50.9c-51.9,0-94.2,42.3-94.2,94.2c0,51.9,42.3,94.2,94.2,94.2s94.2-42.3,94.2-94.2
	C235.9,93.1,193.7,50.9,141.7,50.9z"/>
<path class="st0" d="M139.6,191.8c-0.1,0-0.1,0-0.2,0c-34.2,0-62-22.9-62-51.1s27.8-51.1,62-51.1s62,22.9,62,51.1
	c0,13.9-6.6,26.9-18.7,36.6c-1.7,1.4-4.2,1.1-5.6-0.6c-1.4-1.7-1.1-4.2,0.6-5.6c10.1-8.1,15.7-18.9,15.7-30.3
	c0-23.8-24.2-43.1-54-43.1s-54,19.3-54,43.1s24.2,43.1,54,43.1c6.7,0,13.4-1,19.8-3c2.1-0.7,4.4,0.5,5,2.6s-0.5,4.4-2.6,5
	C154.5,190.7,147.1,191.8,139.6,191.8z"/>
<path class="st0" d="M186.7,201c-9.3,0-22-4.9-29.4-13.7c-1.4-1.7-1.2-4.2,0.5-5.6c1.7-1.4,4.2-1.2,5.6,0.5
	c5.1,6.1,13.1,9.4,19.2,10.5c-3.9-6-5.5-12.6-6.4-17.7c-0.4-2.2,1.1-4.2,3.3-4.6c2.2-0.4,4.2,1.1,4.6,3.3c1.1,6.4,3.2,14.4,9.7,19.7
	c1.1,0.9,1.7,2.4,1.4,3.8c-0.3,1.4-1.3,2.6-2.7,3.1C191,200.7,189,201,186.7,201z"/>
</svg>
