<?xml version="1.0" encoding="utf-8"?>
<!-- Generator: Adobe Illustrator 21.0.0, SVG Export Plug-In . SVG Version: 6.00 Build 0)  -->
<svg version="1.1" xmlns="http://www.w3.org/2000/svg" xmlns:xlink="http://www.w3.org/1999/xlink" x="0px" y="0px"
	 viewBox="0 0 283.5 283.5" style="enable-background:new 0 0 283.5 283.5;" xml:space="preserve">
<style type="text/css">
	.st0{clip-path:url(#SVGID_2_);fill:none;stroke:#1D1D1B;stroke-width:8;stroke-linejoin:round;stroke-miterlimit:10;}
	.st1{fill:none;stroke:#1D1D1B;stroke-width:10;stroke-miterlimit:10;}
	.st2{fill:none;stroke:#1D1D1B;stroke-width:8;stroke-linecap:round;stroke-linejoin:round;stroke-miterlimit:10;}
	.st3{fill:none;stroke:#1D1D1B;stroke-width:10;stroke-linecap:round;stroke-linejoin:round;}
	.st4{fill:none;stroke:#1D1D1B;stroke-width:10;stroke-linecap:round;stroke-linejoin:round;stroke-dasharray:0.9527,20.9601;}
	.st5{fill:none;stroke:#1D1D1B;stroke-width:10;stroke-linecap:round;stroke-linejoin:round;stroke-miterlimit:10;}
	.st6{fill:#1D1D1B;}
	.st7{fill:#FFFFFF;stroke:#1D1D1B;stroke-width:5;stroke-linecap:round;stroke-linejoin:round;stroke-miterlimit:10;}
	.st8{fill:none;stroke:#1D1D1B;stroke-width:8;stroke-linejoin:round;stroke-miterlimit:10;}
	.st9{fill:none;stroke:#1D1D1B;stroke-width:8;stroke-miterlimit:10;}
	.st10{fill:none;stroke:#1D1D1B;stroke-width:4;stroke-linecap:round;stroke-linejoin:round;stroke-miterlimit:10;}
	.st11{fill:none;stroke:#1D1D1B;stroke-width:17;stroke-linecap:round;stroke-miterlimit:10;}
	.st12{fill:#FFFFFF;stroke:#1D1D1B;stroke-width:8;stroke-miterlimit:10;}
	.st13{fill:none;stroke:#1D1D1B;stroke-width:8;stroke-linecap:round;stroke-miterlimit:10;}
	.st14{fill:#FFFFFF;stroke:#1D1D1B;stroke-width:8;stroke-linecap:round;stroke-linejoin:round;stroke-miterlimit:10;}
	.st15{fill:none;stroke:#1D1D1B;stroke-width:10;stroke-linecap:round;stroke-miterlimit:10;}
	.st16{clip-path:url(#SVGID_4_);fill:none;stroke:#1D1D1B;stroke-width:8;stroke-linejoin:round;stroke-miterlimit:10;}
	.st17{fill:#FFFFFF;}
</style>
<g id="Calque_1">
	<path class="st8" d="M95.6,166.5c-2.3-5.7-3.5-11.9-3.5-18.4c0-27.4,22.2-49.6,49.6-49.6s49.6,22.2,49.6,49.6
		c0,7.1-1.5,13.8-4.2,19.9"/>
	<path class="st2" d="M116.3,206.2c-13.3,0-24.2-11.2-24.2-25.1s10.8-25.1,24.2-25.1V206.2z"/>
	<path class="st2" d="M164.8,206.2c13.3,0,24.2-11.2,24.2-25.1S178.2,156,164.8,156V206.2z"/>
	<path class="st5" d="M103.6,53.5c11.7-4.9,24.6-7.6,38.2-7.6c54.8,0,99.2,44.4,99.2,99.2s-44.4,99.2-99.2,99.2
		s-99.2-44.4-99.2-99.2c0-9,1.2-17.6,3.4-25.9"/>
	<g>
		<line class="st7" x1="60.1" y1="56.1" x2="57.6" y2="46.8"/>
		<line class="st7" x1="48.7" y1="62.7" x2="41.8" y2="55.9"/>
		<line class="st7" x1="42.1" y1="74.2" x2="32.7" y2="71.7"/>
		<line class="st7" x1="42.1" y1="87.4" x2="32.7" y2="89.9"/>
		<line class="st7" x1="48.7" y1="98.8" x2="41.8" y2="105.7"/>
		<line class="st7" x1="60.1" y1="105.4" x2="57.6" y2="114.8"/>
		<line class="st7" x1="73.3" y1="105.4" x2="75.8" y2="114.8"/>
		<line class="st7" x1="84.8" y1="98.8" x2="91.6" y2="105.7"/>
		<line class="st7" x1="91.4" y1="87.4" x2="100.7" y2="89.9"/>
		<line class="st7" x1="91.4" y1="74.2" x2="100.7" y2="71.7"/>
		<line class="st7" x1="84.8" y1="62.7" x2="91.6" y2="55.9"/>
		<line class="st7" x1="73.3" y1="56.1" x2="75.8" y2="46.8"/>
	</g>
</g>
<g id="Calque_2">
</g>
</svg>
