<?xml version="1.0" encoding="utf-8"?>
<!-- Generator: Adobe Illustrator 21.0.0, SVG Export Plug-In . SVG Version: 6.00 Build 0)  -->
<svg version="1.1" id="Calque_1" xmlns="http://www.w3.org/2000/svg" xmlns:xlink="http://www.w3.org/1999/xlink" x="0px" y="0px"
	 viewBox="0 0 283.5 283.5" style="enable-background:new 0 0 283.5 283.5;" xml:space="preserve">
<style type="text/css">
	.st0{fill:#1D1D1B;}
</style>
<title>effacer</title>
<path class="st0" d="M141.7,249.1c-40.8,0-79.6-24.2-96.3-64.1c-8.8-21.1-10.3-44.9-4.4-67c0.7-2.7,3.5-4.2,6.1-3.5
	c2.7,0.7,4.2,3.5,3.5,6.1c-5.4,20-4,41.5,4,60.6c19.9,47.9,75.1,70.7,123,50.8c47.9-19.9,70.7-75.1,50.8-123
	c-19.9-47.9-75.1-70.7-123-50.8C103,59.2,100,58,99,55.4s0.1-5.5,2.7-6.5c53-22,114,3.2,136.1,56.2s-3.2,114-56.2,136.1
	C168.5,246.5,155,249.1,141.7,249.1z"/>
<g>
	<path class="st0" d="M60.1,58.6c-1.1,0-2.1-0.7-2.4-1.9l-2.5-9.4c-0.4-1.3,0.4-2.7,1.8-3.1c1.3-0.4,2.7,0.4,3.1,1.8l2.5,9.4
		c0.4,1.3-0.4,2.7-1.8,3.1C60.6,58.6,60.3,58.6,60.1,58.6z"/>
	<path class="st0" d="M48.7,65.2c-0.6,0-1.3-0.2-1.8-0.7l-6.9-6.9c-1-1-1-2.6,0-3.5c1-1,2.6-1,3.5,0l6.9,6.9c1,1,1,2.6,0,3.5
		C50,65,49.3,65.2,48.7,65.2z"/>
	<path class="st0" d="M42.1,76.7c-0.2,0-0.4,0-0.6-0.1l-9.4-2.5c-1.3-0.4-2.1-1.7-1.8-3.1c0.4-1.3,1.7-2.1,3.1-1.8l9.4,2.5
		c1.3,0.4,2.1,1.7,1.8,3.1C44.2,75.9,43.2,76.7,42.1,76.7z"/>
	<path class="st0" d="M32.7,92.4c-1.1,0-2.1-0.7-2.4-1.9c-0.4-1.3,0.4-2.7,1.8-3.1l9.4-2.5c1.3-0.4,2.7,0.4,3.1,1.8
		c0.4,1.3-0.4,2.7-1.8,3.1l-9.4,2.5C33.1,92.4,32.9,92.4,32.7,92.4z"/>
	<path class="st0" d="M41.8,108.2c-0.6,0-1.3-0.2-1.8-0.7c-1-1-1-2.6,0-3.5l6.9-6.9c1-1,2.6-1,3.5,0c1,1,1,2.6,0,3.5l-6.9,6.9
		C43.1,107.9,42.5,108.2,41.8,108.2z"/>
	<path class="st0" d="M57.6,117.3c-0.2,0-0.4,0-0.6-0.1c-1.3-0.4-2.1-1.7-1.8-3.1l2.5-9.4c0.4-1.3,1.7-2.1,3.1-1.8
		c1.3,0.4,2.1,1.7,1.8,3.1l-2.5,9.4C59.7,116.6,58.7,117.3,57.6,117.3z"/>
	<path class="st0" d="M75.8,117.3c-1.1,0-2.1-0.7-2.4-1.9l-2.5-9.4c-0.4-1.3,0.4-2.7,1.8-3.1c1.3-0.4,2.7,0.4,3.1,1.8l2.5,9.4
		c0.4,1.3-0.4,2.7-1.8,3.1C76.3,117.3,76.1,117.3,75.8,117.3z"/>
	<path class="st0" d="M91.6,108.2c-0.6,0-1.3-0.2-1.8-0.7l-6.9-6.9c-1-1-1-2.6,0-3.5c1-1,2.6-1,3.5,0l6.9,6.9c1,1,1,2.6,0,3.5
		C92.9,107.9,92.3,108.2,91.6,108.2z"/>
	<path class="st0" d="M100.7,92.4c-0.2,0-0.4,0-0.7-0.1l-9.4-2.5c-1.3-0.4-2.1-1.7-1.8-3.1c0.4-1.3,1.7-2.1,3.1-1.8l9.4,2.5
		c1.3,0.4,2.1,1.7,1.8,3.1C102.9,91.7,101.8,92.4,100.7,92.4z"/>
	<path class="st0" d="M91.4,76.7c-1.1,0-2.1-0.7-2.4-1.9c-0.4-1.3,0.4-2.7,1.8-3.1l9.4-2.5c1.3-0.4,2.7,0.4,3.1,1.8
		s-0.4,2.7-1.8,3.1L92,76.6C91.8,76.6,91.6,76.7,91.4,76.7z"/>
	<path class="st0" d="M84.8,65.2c-0.6,0-1.3-0.2-1.8-0.7c-1-1-1-2.6,0-3.5l6.9-6.9c1-1,2.6-1,3.5,0c1,1,1,2.6,0,3.5l-6.9,6.9
		C86.1,65,85.4,65.2,84.8,65.2z"/>
	<path class="st0" d="M73.3,58.6c-0.2,0-0.4,0-0.6-0.1c-1.3-0.4-2.1-1.7-1.8-3.1l2.5-9.4c0.4-1.3,1.7-2.1,3.1-1.8
		c1.3,0.4,2.1,1.7,1.8,3.1l-2.5,9.4C75.4,57.9,74.4,58.6,73.3,58.6z"/>
</g>
<g>
	<path class="st0" d="M127.3,206.9c-1.1,0-2.1-0.4-2.8-1.2l-42-42c-1.6-1.6-1.6-4.1,0-5.7l68.9-68.9c1.6-1.6,4.1-1.6,5.7,0l42,42
		c0.8,0.8,1.2,1.8,1.2,2.8s-0.4,2.1-1.2,2.8l-68.9,68.9C129.4,206.5,128.4,206.9,127.3,206.9z M90.9,160.9l36.4,36.4l63.3-63.3
		l-36.4-36.4L90.9,160.9z"/>
	<path class="st0" d="M153.2,181L153.2,181c-1.1,0-2.1-0.4-2.8-1.2l-42-42c-1.6-1.6-1.6-4.1,0-5.7l43-43c1.6-1.6,4.1-1.6,5.7,0
		l42,42c0.8,0.8,1.2,1.8,1.2,2.8s-0.4,2.1-1.2,2.8l-43,43C155.3,180.6,154.3,181,153.2,181z M116.8,135l36.4,36.4l37.4-37.4
		l-36.4-36.4L116.8,135z"/>
</g>
<path class="st0" d="M186.2,207.2h-58.7c-2.2,0-4-1.8-4-4s1.8-4,4-4h58.7c2.2,0,4,1.8,4,4S188.4,207.2,186.2,207.2z"/>
</svg>
