<?xml version="1.0" encoding="utf-8"?>
<!-- Generator: Adobe Illustrator 21.0.0, SVG Export Plug-In . SVG Version: 6.00 Build 0)  -->
<svg version="1.1" xmlns="http://www.w3.org/2000/svg" xmlns:xlink="http://www.w3.org/1999/xlink" x="0px" y="0px"
	 viewBox="0 0 1615.8 1218.9" style="enable-background:new 0 0 1615.8 1218.9;" xml:space="preserve">
<style type="text/css">
	.st0{fill:none;}
	.st1{fill:#1D1D1B;}
	.st2{fill:#FFD400;}
	.st3{fill:url(#);}
	.st4{fill:url(#SVGID_1_);}
	.st5{fill:url(#SVGID_2_);}
	.st6{fill:url(#SVGID_3_);}
	.st7{fill:url(#SVGID_4_);}
	.st8{fill:none;stroke:#1D1D1B;stroke-width:20;stroke-linecap:round;stroke-linejoin:round;stroke-miterlimit:10;}
	.st9{fill:none;stroke:#1D1D1B;stroke-width:11;stroke-linecap:round;stroke-linejoin:round;}
	
		.st10{fill:none;stroke:#1D1D1B;stroke-width:11;stroke-linecap:round;stroke-linejoin:round;stroke-dasharray:19.5515,39.103,19.5515,39.103;}
	
		.st11{fill:none;stroke:#1D1D1B;stroke-width:11;stroke-linecap:round;stroke-linejoin:round;stroke-dasharray:19.5515,39.103,19.5515,39.103,19.5515,39.103;}
	.st12{fill:none;stroke:#FFB600;stroke-width:17;stroke-linecap:round;stroke-linejoin:round;stroke-miterlimit:10;}
</style>
<pattern  width="276" height="248.2" patternUnits="userSpaceOnUse" id="abeille" viewBox="0 -248.2 276 248.2" style="overflow:visible;">
	<g>
		<rect x="0" y="-248.2" class="st0" width="276" height="248.2"/>
		<g>
			<rect y="-62" class="st1" width="276" height="62"/>
		</g>
		<g>
			<rect y="-186.1" class="st1" width="276" height="62"/>
			<rect y="-124.1" class="st2" width="276" height="62"/>
		</g>
		<g>
			<rect y="-248.2" class="st2" width="276" height="62"/>
		</g>
	</g>
</pattern>
<g id="FOND">
	<rect class="st2" width="1615.8" height="1218.9"/>
</g>
<g id="Calque_1">
	<g>
		
			<ellipse transform="matrix(0.7071 -0.7071 0.7071 0.7071 -276.7205 1031.276)" class="st1" cx="1106.5" cy="849.7" rx="88.2" ry="88.2"/>
		<pattern  id="SVGID_1_" xlink:href="#abeille" patternTransform="matrix(0.6958 -0.6958 0.8305 0.8305 5050.7837 -4101.2456)">
		</pattern>
		<path class="st4" d="M1444.2,1016.3c95.9,95.9,88,259.1,88,259.1s-163.3,7.8-259.1-88c-95.9-95.9-88-259.1-88-259.1
			S1348.3,920.4,1444.2,1016.3z"/>
		<path class="st1" d="M1466.7,663.2c113.6-53,247.9-5.3,247.9-5.3s-49.8,133.6-163.4,186.6s-247.9,5.3-247.9,5.3
			S1353.1,716.2,1466.7,663.2z"/>
		<path class="st1" d="M920.1,1209.8c-53,113.6-5.3,247.9-5.3,247.9s133.6-49.8,186.6-163.4c53-113.6,5.3-247.9,5.3-247.9
			S973,1096.3,920.1,1209.8z"/>
		<path class="st1" d="M1008.3,811.7c-4.9,4.9-12.8,5.8-18.8,1.8c-38-25.8-66.9-28.1-81.3-21.6c-8.3,3.8-13.2,11-14.5,21.4
			c-1,8.1-8.4,13.9-16.5,12.9c-8.1-1-13.9-8.4-12.9-16.5c2.6-20.8,13.9-36.7,31.7-44.7c28.6-12.9,68.7-4.1,110.1,24.1
			c6.8,4.6,8.5,13.8,3.9,20.6C1009.6,810.3,1009,811,1008.3,811.7z"/>
		<path class="st1" d="M1068.5,751.5c-0.6,0.6-1.4,1.2-2.2,1.8c-6.8,4.6-16,2.9-20.6-3.9c-28.2-41.4-37-81.6-24.1-110.1
			c8.1-17.9,24-29.1,44.7-31.7c8.1-1,15.5,4.7,16.5,12.9c1,8.1-4.7,15.5-12.9,16.5c-10.4,1.3-17.6,6.2-21.4,14.5
			c-6.5,14.4-4.3,43.3,21.6,81.3C1074.3,738.7,1073.4,746.6,1068.5,751.5z"/>
	</g>
	<g>
		
			<ellipse transform="matrix(0.7604 -0.6495 0.6495 0.7604 -198.4774 189.4932)" class="st1" cx="157.6" cy="363.7" rx="32.9" ry="32.9"/>
		<pattern  id="SVGID_2_" xlink:href="#abeille" patternTransform="matrix(0.2383 0.279 -0.333 0.2844 -6020.6421 -3020.0071)">
		</pattern>
		<path class="st5" d="M85.8,484.4c-38.4,32.8-98.9,25.1-98.9,25.1s1.9-60.9,40.3-93.7s98.9-25.1,98.9-25.1S124.2,451.6,85.8,484.4z
			"/>
		<path class="st1" d="M216.3,503.1c16.4,43.8-5.3,92.3-5.3,92.3s-48.2-22.4-64.6-66.2s5.3-92.3,5.3-92.3S200,459.3,216.3,503.1z"/>
		<path class="st1" d="M29.1,283.9c-40.7-23-92-9.2-92-9.2s14.6,51.1,55.3,74.1s92,9.2,92,9.2S69.8,306.9,29.1,283.9z"/>
		<path class="st1" d="M174.6,328.4c-1.7-2-1.8-4.9-0.1-7c10.7-13.4,12.4-24,10.4-29.6c-1.2-3.2-3.7-5.2-7.5-6
			c-3-0.6-4.9-3.5-4.3-6.5c0.6-3,3.5-4.9,6.5-4.3c7.6,1.6,13.2,6.2,15.7,13.1c4,11-0.5,25.7-12.2,40.2c-1.9,2.4-5.4,2.8-7.8,0.9
			C175.1,328.9,174.8,328.6,174.6,328.4z"/>
		<path class="st1" d="M195.2,352.5c-0.2-0.3-0.4-0.5-0.6-0.9c-1.5-2.6-0.6-6,2.1-7.5c16.2-9.3,31.4-11.4,41.6-5.7
			c6.4,3.5,10.1,9.8,10.5,17.6c0.1,3-2.2,5.6-5.3,5.8c-3,0.1-5.6-2.2-5.8-5.3c-0.2-3.9-1.8-6.7-4.8-8.4c-5.2-2.8-16-2.9-30.8,5.6
			C199.8,355,196.9,354.5,195.2,352.5z"/>
	</g>
</g>
</svg>
