<?xml version="1.0" encoding="utf-8"?>
<!-- Generator: Adobe Illustrator 21.0.0, SVG Export Plug-In . SVG Version: 6.00 Build 0)  -->
<svg version="1.1" id="Calque_1" xmlns="http://www.w3.org/2000/svg" xmlns:xlink="http://www.w3.org/1999/xlink" x="0px" y="0px"
	 viewBox="0 0 283.5 283.5" style="enable-background:new 0 0 283.5 283.5;" xml:space="preserve">
<style type="text/css">
	.st0{fill:#FFD400;}
	.st1{fill:none;stroke:#FFB600;stroke-width:17;stroke-linecap:round;stroke-linejoin:round;stroke-miterlimit:10;}
	.st2{fill:#FFB600;}
</style>
<polygon class="st0" points="54,91.1 54,192.4 141.7,243.1 229.5,192.4 229.5,91.1 141.7,40.4 "/>
<polyline class="st1" points="116.1,202.2 118,203.3 143.5,218 209.6,179.9 209.6,103.6 143.5,65.4 116.3,81.2 "/>
<g>
	<path class="st2" d="M168.7,152.2h-63c-4.5,0-8.2-3.7-8.2-8.2s3.7-8.2,8.2-8.2h63c4.5,0,8.2,3.7,8.2,8.2S173.3,152.2,168.7,152.2z"
		/>
	<path class="st2" d="M154.2,175.7c-2.1,0-4.2-0.8-5.8-2.4c-3.2-3.2-3.2-8.4,0-11.6l23.2-23.2c3.2-3.2,8.4-3.2,11.6,0
		c3.2,3.2,3.2,8.4,0,11.6L160,173.3C158.4,174.9,156.3,175.7,154.2,175.7z"/>
	<path class="st2" d="M177.4,151.9c-2.1,0-4.2-0.8-5.8-2.4l-23.2-23.2c-3.2-3.2-3.2-8.4,0-11.6s8.4-3.2,11.6,0l23.2,23.2
		c3.2,3.2,3.2,8.4,0,11.6C181.6,151.1,179.5,151.9,177.4,151.9z"/>
</g>
</svg>
