<?xml version="1.0" encoding="utf-8"?>
<!-- Generator: Adobe Illustrator 21.0.0, SVG Export Plug-In . SVG Version: 6.00 Build 0)  -->
<svg version="1.1" id="Calque_1" xmlns="http://www.w3.org/2000/svg" xmlns:xlink="http://www.w3.org/1999/xlink" x="0px" y="0px"
	 viewBox="0 0 524.4 269.3" style="enable-background:new 0 0 524.4 269.3;" xml:space="preserve">
<style type="text/css">
	.st0{fill:none;}
	.st1{fill:#1D1D1B;}
	.st2{fill:#FFD400;}
	.st3{fill:none;stroke:#FFB600;stroke-width:17;stroke-linecap:round;stroke-linejoin:round;stroke-miterlimit:10;}
	.st4{fill:#FFB600;}
	.st5{fill:url(#SVGID_1_);}
</style>
<pattern  x="-935.9" y="-7.1" width="276" height="248.2" patternUnits="userSpaceOnUse" id="abeille" viewBox="0 -248.2 276 248.2" style="overflow:visible;">
	<g>
		<rect x="0" y="-248.2" class="st0" width="276" height="248.2"/>
		<g>
			<rect y="-62" class="st1" width="276" height="62"/>
		</g>
		<g>
			<rect y="-186.1" class="st1" width="276" height="62"/>
			<rect y="-124.1" class="st2" width="276" height="62"/>
		</g>
		<g>
			<rect y="-248.2" class="st2" width="276" height="62"/>
		</g>
	</g>
</pattern>
<rect y="0" class="st2" width="524.4" height="269.3"/>
<g>
	<polygon class="st2" points="174.4,87 174.4,188.3 262.2,239 350,188.3 350,87 262.2,36.3 	"/>
</g>
<path class="st4" d="M264,222.4c-1.5,0-2.9-0.4-4.2-1.1l-27.5-15.9c-4.1-2.3-5.5-7.5-3.1-11.6c2.3-4.1,7.5-5.5,11.6-3.1l23.2,13.4
	l57.6-33.2v-66.5L264,71.2l-23,13.3c-4.1,2.3-9.3,1-11.6-3.1c-2.3-4.1-1-9.3,3.1-11.6L259.8,54c2.6-1.5,5.9-1.5,8.5,0l66.1,38.1
	c2.6,1.5,4.2,4.3,4.2,7.4v76.3c0,3-1.6,5.8-4.2,7.4l-66.1,38.1C267,222.1,265.5,222.4,264,222.4z"/>
<g>
	<path class="st4" d="M221.3,127.1l-0.8,6.4v2.2c0,7.1,0.2,11.8,0.5,14.1c0.3,2.3,0.6,4.4,1,6.2c0.3,1.8,0.8,3.4,1.3,4.7
		c0.5,1.3,1.1,2.5,1.9,3.6c1.4,2.3,3.4,3.4,6,3.4c1,0,2.3-0.5,3.9-1.6c1.6-1.1,2.7-1.6,3.5-1.6s1.7,0.5,2.6,1.4
		c0,3.1-1.8,5.3-5.3,6.6c-1.7,0.6-3.6,0.9-5.7,0.9c-2,0-3.8-0.4-5.2-1.2c-1.4-0.8-2.6-1.9-3.6-3.2c-1-1.3-1.8-3-2.5-5
		c-0.7-2-1.3-4.1-1.7-6.1c-0.4-2-0.7-4.4-0.9-7c-0.4-4.4-0.6-9.3-0.6-14.5l0.1-11c0-3.5,0.2-6.3,0.6-8.5c-0.2-1-0.3-1.9-0.3-2.9
		c0-3.8,1.4-6.8,4.2-9c2.8-2.2,6.3-3.3,10.4-3.3c1.5,0,2.9,0.4,4.3,1.2c1.4,0.8,2.1,1.9,2.1,3.3c0,0.7-0.3,1.2-0.8,1.5
		c-0.5,0.4-1.4,0.5-2.6,0.5c-1.2,0-2-0.4-2.5-1.1v0h-1.3v-0.2c-3.6,0-6,1.1-7.3,3.3c-1.2,2-1.8,5.5-1.8,10.5L221.3,127.1z"/>
	<path class="st4" d="M251.1,137.1l0.1,2.9v0.4c0.2,5.3,0.4,13.3,0.4,24v2.3h7c1.3,0.9,2,1.8,2,2.6s-0.2,1.5-0.7,2
		c-0.4,0.5-0.9,0.8-1.4,0.8c-0.5,0-1-0.1-1.7-0.3c-0.5,0.1-1.1,0.2-1.8,0.2l-3-0.1c-0.6,0.7-1.4,1.1-2.4,1.1c-0.9,0-1.7-0.3-2.4-0.9
		c-0.6-0.6-1-1.3-1-2l0.6-4c0-7-0.3-17.4-0.9-31.4c-0.6-13.9-0.9-24.4-0.9-31.4c0-0.6,0.2-1,0.7-1.4c0.4-0.3,1-0.5,1.7-0.5
		s1.3,0.3,1.8,0.8c0.6,0.5,0.8,1.1,0.8,1.9L251.1,137.1z"/>
	<path class="st4" d="M275.3,107.2l-1.6,0c-0.6,0-1,0.1-1.3,0.4c-0.3,0.3-0.4,0.8-0.4,1.5c0,6,0.4,15,1.1,26.9
		c0.7,11.9,1.1,20.9,1.1,26.9v3.5c0.6-0.1,1.3-0.1,1.9-0.1c2.5,0,3.8,1.1,3.8,3.2v0.5l-2.3,1.6l-6.2,0.2c-5.3,0-7.9-0.9-7.9-2.7
		c0-1.5,0.9-2.2,2.8-2.2l1.9,0.1c0.9,0,1.3-0.7,1.3-2.2c0-4.7-0.3-11.8-0.9-21.3c-0.6-9.4-0.9-16.5-0.9-21.3l0.2-9.4
		c0-2-0.1-3.7-0.2-5.1c-0.8,0.3-1.5,0.4-2.2,0.4c-1.4,0-2.2-0.7-2.2-2.2c0-0.7,0.5-1.4,1.4-2c0.9-0.6,2.1-0.9,3.5-1.2
		c2.6-0.4,4.5-0.7,5.7-0.7c1.2,0,2.1,0.2,2.7,0.7s0.8,1.1,0.8,1.8c0,0.7-0.2,1.3-0.6,1.8S276,107.2,275.3,107.2z"/>
	<path class="st4" d="M289.1,127.1l-0.8,6.4v2.2c0,7.1,0.2,11.8,0.5,14.1c0.3,2.3,0.6,4.4,1,6.2c0.3,1.8,0.8,3.4,1.3,4.7
		c0.5,1.3,1.1,2.5,1.9,3.6c1.4,2.3,3.4,3.4,6,3.4c1,0,2.3-0.5,3.9-1.6c1.6-1.1,2.7-1.6,3.5-1.6s1.7,0.5,2.6,1.4
		c0,3.1-1.8,5.3-5.3,6.6c-1.7,0.6-3.6,0.9-5.7,0.9c-2,0-3.8-0.4-5.2-1.2c-1.4-0.8-2.6-1.9-3.6-3.2c-1-1.3-1.8-3-2.5-5
		c-0.7-2-1.3-4.1-1.7-6.1c-0.4-2-0.7-4.4-0.9-7c-0.4-4.4-0.6-9.3-0.6-14.5l0.1-11c0-3.5,0.2-6.3,0.6-8.5c-0.2-1-0.3-1.9-0.3-2.9
		c0-3.8,1.4-6.8,4.2-9c2.8-2.2,6.3-3.3,10.4-3.3c1.5,0,2.9,0.4,4.3,1.2c1.4,0.8,2.1,1.9,2.1,3.3c0,0.7-0.3,1.2-0.8,1.5
		s-1.4,0.5-2.6,0.5s-2-0.4-2.5-1.1v0h-1.3v-0.2c-3.6,0-6,1.1-7.3,3.3c-1.2,2-1.8,5.5-1.8,10.5L289.1,127.1z"/>
</g>
<ellipse transform="matrix(0.6836 -0.7298 0.7298 0.6836 -56.6202 169.1814)" class="st1" cx="166.8" cy="149.9" rx="14.3" ry="14.3"/>
<pattern  id="SVGID_1_" xlink:href="#abeille" patternTransform="matrix(0.1166 0.1092 -0.1304 0.1392 -6615.6655 -6040.4521)">
</pattern>
<path class="st5" d="M141.6,205.6c-15.1,16.1-41.6,15.7-41.6,15.7s-2.1-26.5,12.9-42.5s41.6-15.7,41.6-15.7S156.6,189.5,141.6,205.6
	z"/>
<path class="st1" d="M199,207.4c9.2,18.2,2.2,40.2,2.2,40.2s-21.9-7.4-31.1-25.5c-9.2-18.2-2.2-40.2-2.2-40.2S189.8,189.2,199,207.4
	z"/>
<path class="st1" d="M107.4,121.6c-18.7-8-40.3,0.5-40.3,0.5s8.8,21.4,27.5,29.4s40.3-0.5,40.3-0.5S126.1,129.5,107.4,121.6z"/>
<path class="st1" d="M172.5,133.8c-0.8-0.8-1-2-0.4-3c4-6.3,4.2-11,3.1-13.3c-0.7-1.3-1.9-2.1-3.6-2.2c-1.3-0.1-2.3-1.3-2.2-2.6
	c0.1-1.3,1.3-2.3,2.6-2.2c3.4,0.3,6,2.1,7.4,4.9c2.2,4.6,1,11.1-3.3,18c-0.7,1.1-2.2,1.5-3.3,0.7C172.7,134,172.6,133.9,172.5,133.8
	z"/>
<path class="st1" d="M182.6,143.2c-0.1-0.1-0.2-0.2-0.3-0.3c-0.8-1.1-0.5-2.6,0.5-3.4c6.6-4.8,13-6.4,17.7-4.5
	c2.9,1.2,4.9,3.7,5.4,7.1c0.2,1.3-0.7,2.5-2,2.8c-1.3,0.2-2.5-0.7-2.8-2c-0.3-1.7-1.1-2.8-2.5-3.4c-2.4-1-7.1-0.5-13.1,3.9
	C184.7,144.1,183.4,144,182.6,143.2z"/>
</svg>
