<svg id="Calque_1" data-name="Calque 1" xmlns="http://www.w3.org/2000/svg" xmlns:xlink="http://www.w3.org/1999/xlink" width="100mm" height="100mm" viewBox="0 0 283.46 283.46">
  <defs>
    <style>
      .cls-1, .cls-4 {
        fill: none;
      }

      .cls-2 {
        fill: #1d1d1b;
      }

      .cls-3 {
        fill: #ffd400;
      }

      .cls-4 {
        stroke: #ffb600;
        stroke-linecap: round;
        stroke-linejoin: round;
        stroke-width: 17px;
      }

      .cls-5 {
        fill: url(#abeille);
      }
    </style>
    <pattern id="abeille" data-name="abeille" width="276" height="248.19" patternTransform="translate(48.38 6.75) scale(0.1 0.12)" patternUnits="userSpaceOnUse" viewBox="0 0 276 248.19">
      <rect class="cls-1" width="276" height="248.19"/>
      <rect class="cls-2" y="186.14" width="276" height="62.05"/>
      <g>
        <rect class="cls-2" y="62.05" width="276" height="62.05"/>
        <rect class="cls-3" y="124.09" width="276" height="62.05"/>
      </g>
      <rect class="cls-3" width="276" height="62.05"/>
    </pattern>
  </defs>
  <title>logo</title>
  <polygon class="cls-3" points="53.96 91.06 53.96 192.4 141.73 243.08 229.5 192.4 229.5 91.06 141.73 40.38 53.96 91.06"/>
  <polyline class="cls-4" points="116.07 202.16 118.04 203.3 143.54 218.02 209.62 179.88 209.62 103.58 143.54 65.44 116.25 81.2"/>
  <g>
    <circle class="cls-2" cx="139.73" cy="120.86" r="8.69"/>
    <path class="cls-5" d="M151.66,156c0,13.37-11.93,24.2-11.93,24.2S127.8,169.39,127.8,156s11.93-24.2,11.93-24.2S151.66,142.65,151.66,156Z"/>
    <path class="cls-2" d="M177.84,133c11.61,4.23,17.65,16.92,17.65,16.92s-12.79,5.84-24.4,1.61-17.65-16.92-17.65-16.92S166.23,128.75,177.84,133Z"/>
    <path class="cls-2" d="M101.62,133C90,137.2,84,149.89,84,149.89s12.79,5.84,24.4,1.61S126,134.59,126,134.59,113.23,128.75,101.62,133Z"/>
    <path class="cls-2" d="M135.54,111.37a1.46,1.46,0,0,1-1.43-1.19c-.85-4.45-2.7-6.62-4.16-7.17a2.47,2.47,0,0,0-2.51.48,1.46,1.46,0,1,1-1.79-2.31,5.36,5.36,0,0,1,5.33-.91c2.89,1.09,5.08,4.5,6,9.36a1.46,1.46,0,0,1-1.16,1.71Z"/>
    <path class="cls-2" d="M143.92,111.37l-.27,0a1.46,1.46,0,0,1-1.16-1.71c.92-4.86,3.11-8.27,6-9.36a5.36,5.36,0,0,1,5.33.91,1.46,1.46,0,1,1-1.79,2.31,2.47,2.47,0,0,0-2.51-.48c-1.46.55-3.32,2.72-4.16,7.17A1.46,1.46,0,0,1,143.92,111.37Z"/>
  </g>
</svg>
