<?xml version="1.0" encoding="utf-8"?>
<!-- Generator: Adobe Illustrator 21.0.0, SVG Export Plug-In . SVG Version: 6.00 Build 0)  -->
<svg version="1.1" id="Calque_1" xmlns="http://www.w3.org/2000/svg" xmlns:xlink="http://www.w3.org/1999/xlink" x="0px" y="0px"
	 viewBox="0 0 283.5 283.5" style="enable-background:new 0 0 283.5 283.5;" xml:space="preserve">
<style type="text/css">
	.st0{fill:#1D1D1B;}
	.st1{fill:#FFFFFF;}
</style>
<title>icons</title>
<path class="st0" d="M141.7,249.3c-57.5,0-104.2-46.7-104.2-104.2c0-57.5,46.7-104.2,104.2-104.2s104.2,46.7,104.2,104.2
	C245.9,202.6,199.2,249.3,141.7,249.3z M141.7,50.9c-51.9,0-94.2,42.3-94.2,94.2c0,51.9,42.3,94.2,94.2,94.2s94.2-42.3,94.2-94.2
	C235.9,93.1,193.7,50.9,141.7,50.9z"/>
<path class="st0" d="M197,188.4H86.4c-2.2,0-4-1.8-4-4v-78.7c0-2.2,1.8-4,4-4H197c2.2,0,4,1.8,4,4v78.7
	C201,186.6,199.2,188.4,197,188.4z M90.4,180.4H193v-70.7H90.4V180.4z"/>
<path class="st0" d="M197,188.4H86.4c-1.5,0-2.9-0.9-3.6-2.2c-0.7-1.4-0.5-3,0.4-4.2l28.1-36c0.8-1,1.9-1.5,3.2-1.5h54.4
	c1.2,0,2.4,0.6,3.2,1.5l28.1,36c0.9,1.2,1.1,2.8,0.4,4.2C200,187.6,198.6,188.4,197,188.4z M94.6,180.4h94.2l-21.9-28h-50.5
	L94.6,180.4z"/>
<g>
	<polygon class="st1" points="141.7,168.5 86.4,105.7 197,105.7 	"/>
	<path class="st0" d="M141.7,172.5c-1.1,0-2.2-0.5-3-1.4l-55.3-62.7c-1-1.2-1.3-2.9-0.6-4.3c0.6-1.4,2.1-2.4,3.6-2.4H197
		c1.6,0,3,0.9,3.6,2.4c0.6,1.4,0.4,3.1-0.6,4.3l-55.3,62.7C144,172,142.9,172.5,141.7,172.5z M95.3,109.7l46.4,52.7l46.4-52.7H95.3z
		"/>
</g>
</svg>
