<?xml version="1.0" encoding="utf-8"?>
<!-- Generator: Adobe Illustrator 21.0.0, SVG Export Plug-In . SVG Version: 6.00 Build 0)  -->
<svg version="1.1" id="Calque_1" xmlns="http://www.w3.org/2000/svg" xmlns:xlink="http://www.w3.org/1999/xlink" x="0px" y="0px"
	 viewBox="0 0 283.5 283.5" style="enable-background:new 0 0 283.5 283.5;" xml:space="preserve">
<style type="text/css">
	.st0{fill:#1D1D1B;}
</style>
<title>icons</title>
<path class="st0" d="M141.7,249.3c-57.5,0-104.2-46.7-104.2-104.2S84.2,40.9,141.7,40.9s104.2,46.7,104.2,104.2
	S199.2,249.3,141.7,249.3z M141.7,50.9c-51.9,0-94.2,42.3-94.2,94.2s42.3,94.2,94.2,94.2s94.2-42.3,94.2-94.2
	C235.9,93.1,193.7,50.9,141.7,50.9z"/>
<path class="st0" d="M122,183.4c-2.2,0-4-1.8-4-4v-76.2c0-2,1.4-3.6,3.4-4l62.1-9.8c1.2-0.2,2.3,0.2,3.2,0.9c0.9,0.8,1.4,1.9,1.4,3
	v78c0,2.2-1.8,4-4,4s-4-1.8-4-4V98.1l-54.1,8.5v72.8C126,181.6,124.2,183.4,122,183.4z"/>
<ellipse transform="matrix(0.9397 -0.342 0.342 0.9397 -55.5973 48.065)" class="st0" cx="108.5" cy="181.7" rx="18.1" ry="15.1"/>
<ellipse transform="matrix(0.9397 -0.342 0.342 0.9397 -48.732 68.6475)" class="st0" cx="170.3" cy="172.5" rx="18.1" ry="15.1"/>
</svg>
