<?xml version="1.0" encoding="utf-8"?>
<!-- Generator: Adobe Illustrator 21.0.0, SVG Export Plug-In . SVG Version: 6.00 Build 0)  -->
<svg version="1.1" id="Calque_1" xmlns="http://www.w3.org/2000/svg" xmlns:xlink="http://www.w3.org/1999/xlink" x="0px" y="0px"
	 viewBox="0 0 283.5 283.5" style="enable-background:new 0 0 283.5 283.5;" xml:space="preserve">
<style type="text/css">
	.st0{fill:#1D1D1B;}
	.st1{fill:#FFFFFF;}
</style>
<title>icons</title>
<path class="st0" d="M92.1,175.6c-1,0-2-0.4-2.8-1.2c-1.6-1.6-1.6-4.1,0-5.7l10.2-10.2c1.6-1.6,4.1-1.6,5.7,0c1.6,1.6,1.6,4.1,0,5.7
	l-10.2,10.2C94.2,175.2,93.1,175.6,92.1,175.6z"/>
<path class="st0" d="M191.3,176.6c-1,0-2-0.4-2.8-1.2l-10.2-10.2c-1.6-1.6-1.6-4.1,0-5.7c1.6-1.6,4.1-1.6,5.7,0l10.2,10.2
	c1.6,1.6,1.6,4.1,0,5.7C193.4,176.2,192.4,176.6,191.3,176.6z"/>
<path class="st0" d="M178.8,119.5c-0.7,0-1.4-0.2-2-0.6l-28.3-16.8c-1.9-1.1-2.5-3.6-1.4-5.5c1.1-1.9,3.6-2.5,5.5-1.4l28.3,16.8
	c1.9,1.1,2.5,3.6,1.4,5.5C181.5,118.8,180.2,119.5,178.8,119.5z"/>
<path class="st0" d="M178.8,196.7h-74.2c-2.2,0-4-1.8-4-4v-94c0-2.2,1.8-4,4-4h45.9c2.2,0,4,1.8,4,4s-1.8,4-4,4h-41.9v86h66.2v-73.2
	c0-2.2,1.8-4,4-4s4,1.8,4,4v77.2C182.8,194.9,181.1,196.7,178.8,196.7z"/>
<path class="st0" d="M163.3,128.8c-0.4,0-0.8-0.1-1.1-0.2c-1.1-0.3-2-1.1-2.5-2.1L147,100.5c-1-2-0.1-4.4,1.8-5.3
	c2-1,4.4-0.1,5.3,1.8l10.8,22.1l11.9-7.1c1.9-1.1,4.4-0.5,5.5,1.4c1.1,1.9,0.5,4.4-1.4,5.5l-15.6,9.3
	C164.7,128.6,164,128.8,163.3,128.8z"/>
<path class="st0" d="M178.8,211.4c-2.2,0-4-1.8-4-4v-70.2c0-2.2,1.8-4,4-4s4,1.8,4,4v70.2C182.8,209.6,181.1,211.4,178.8,211.4z"/>
<g>
	<polyline class="st1" points="150.6,127.5 104.6,127.5 104.6,208.5 	"/>
	<path class="st0" d="M104.6,212.5c-2.2,0-4-1.8-4-4v-81c0-2.2,1.8-4,4-4h45.9c2.2,0,4,1.8,4,4c0,2.2-1.8,4-4,4h-41.9v77
		C108.6,210.7,106.8,212.5,104.6,212.5z"/>
</g>
<g>
	<path class="st1" d="M155.3,172.6c-0.2,7.5-6.4,13.4-13.9,13.2c-7.2-0.2-13-6-13.2-13.2H92.1v35.9h99.2v-35.9H155.3z"/>
	<path class="st0" d="M191.3,212.5H92.1c-2.2,0-4-1.8-4-4v-35.9c0-2.2,1.8-4,4-4h36.1c2.2,0,3.9,1.7,4,3.9c0.1,5.1,4.2,9.2,9.3,9.3
		c2.6,0,5-0.9,6.8-2.6c1.9-1.8,2.9-4.1,3-6.7c0.1-2.2,1.8-3.9,4-3.9h36c2.2,0,4,1.8,4,4v35.9C195.3,210.7,193.5,212.5,191.3,212.5z
		 M96.1,204.5h91.2v-27.9h-28.6c-0.8,3.2-2.5,6.1-4.9,8.4c-3.4,3.2-7.9,4.9-12.6,4.8c-8-0.2-14.6-5.7-16.5-13.2H96.1V204.5z"/>
</g>
<path class="st0" d="M141.6,249.1c-13.5,0-26.9-2.6-39.7-7.9c-25.7-10.6-45.7-30.6-56.4-56.3c-8.8-21.1-10.3-44.9-4.4-67
	c0.7-2.7,3.5-4.2,6.1-3.5c2.7,0.7,4.2,3.5,3.5,6.1c-5.4,20-4,41.5,4,60.6c9.6,23.2,27.8,41.3,51,50.9c23.2,9.6,48.8,9.6,72-0.1
	c23.2-9.6,41.3-27.8,50.9-51c9.6-23.2,9.6-48.8-0.1-72c-9.6-23.2-27.8-41.3-51-50.9c-23.2-9.6-48.8-9.6-72,0.1
	c-2.6,1.1-5.5-0.1-6.5-2.7c-1.1-2.6,0.1-5.5,2.7-6.5c25.7-10.7,54-10.7,79.7-0.1c25.7,10.6,45.7,30.6,56.4,56.3s10.7,54,0.1,79.7
	c-10.6,25.7-30.6,45.7-56.3,56.4C168.7,246.5,155.1,249.1,141.6,249.1z"/>
<path class="st0" d="M60.1,58.6c-1.1,0-2.1-0.7-2.4-1.9l-2.5-9.4c-0.4-1.3,0.4-2.7,1.8-3.1c1.3-0.4,2.7,0.4,3.1,1.8l2.5,9.4
	c0.4,1.3-0.4,2.7-1.8,3.1C60.6,58.6,60.3,58.6,60.1,58.6z"/>
<path class="st0" d="M48.7,65.2c-0.6,0-1.3-0.2-1.8-0.7l-6.9-6.9c-1-1-1-2.6,0-3.5c1-1,2.6-1,3.5,0l6.9,6.9c1,1,1,2.6,0,3.5
	C50,65,49.3,65.2,48.7,65.2z"/>
<path class="st0" d="M42.1,76.7c-0.2,0-0.4,0-0.6-0.1l-9.4-2.5c-1.3-0.4-2.1-1.7-1.8-3.1c0.4-1.3,1.7-2.1,3.1-1.8l9.4,2.5
	c1.3,0.4,2.1,1.7,1.8,3.1C44.2,75.9,43.2,76.7,42.1,76.7z"/>
<path class="st0" d="M32.7,92.4c-1.1,0-2.1-0.7-2.4-1.9c-0.4-1.3,0.4-2.7,1.8-3.1l9.4-2.5c1.3-0.4,2.7,0.4,3.1,1.8
	c0.4,1.3-0.4,2.7-1.8,3.1l-9.4,2.5C33.1,92.4,32.9,92.4,32.7,92.4z"/>
<path class="st0" d="M41.8,108.2c-0.6,0-1.3-0.2-1.8-0.7c-1-1-1-2.6,0-3.5l6.9-6.9c1-1,2.6-1,3.5,0c1,1,1,2.6,0,3.5l-6.9,6.9
	C43.1,107.9,42.5,108.2,41.8,108.2z"/>
<path class="st0" d="M57.6,117.3c-0.2,0-0.4,0-0.6-0.1c-1.3-0.4-2.1-1.7-1.8-3.1l2.5-9.4c0.4-1.3,1.7-2.1,3.1-1.8
	c1.3,0.4,2.1,1.7,1.8,3.1l-2.5,9.4C59.7,116.6,58.7,117.3,57.6,117.3z"/>
<path class="st0" d="M75.8,117.3c-1.1,0-2.1-0.7-2.4-1.9l-2.5-9.4c-0.4-1.3,0.4-2.7,1.8-3.1c1.3-0.4,2.7,0.4,3.1,1.8l2.5,9.4
	c0.4,1.3-0.4,2.7-1.8,3.1C76.3,117.3,76.1,117.3,75.8,117.3z"/>
<path class="st0" d="M91.6,108.2c-0.6,0-1.3-0.2-1.8-0.7l-6.9-6.9c-1-1-1-2.6,0-3.5c1-1,2.6-1,3.5,0l6.9,6.9c1,1,1,2.6,0,3.5
	C92.9,107.9,92.3,108.2,91.6,108.2z"/>
<path class="st0" d="M100.7,92.4c-0.2,0-0.4,0-0.7-0.1l-9.4-2.5c-1.3-0.4-2.1-1.7-1.8-3.1c0.4-1.3,1.7-2.1,3.1-1.8l9.4,2.5
	c1.3,0.4,2.1,1.7,1.8,3.1C102.9,91.7,101.8,92.4,100.7,92.4z"/>
<path class="st0" d="M91.4,76.7c-1.1,0-2.1-0.7-2.4-1.9c-0.4-1.3,0.4-2.7,1.8-3.1l9.4-2.5c1.3-0.4,2.7,0.4,3.1,1.8
	c0.4,1.3-0.4,2.7-1.8,3.1L92,76.6C91.8,76.6,91.6,76.7,91.4,76.7z"/>
<path class="st0" d="M84.8,65.2c-0.6,0-1.3-0.2-1.8-0.7c-1-1-1-2.6,0-3.5l6.9-6.9c1-1,2.6-1,3.5,0c1,1,1,2.6,0,3.5l-6.9,6.9
	C86,65,85.4,65.2,84.8,65.2z"/>
<path class="st0" d="M73.3,58.6c-0.2,0-0.4,0-0.6-0.1c-1.3-0.4-2.1-1.7-1.8-3.1l2.5-9.4c0.4-1.3,1.7-2.1,3.1-1.8
	c1.3,0.4,2.1,1.7,1.8,3.1l-2.5,9.4C75.4,57.9,74.4,58.6,73.3,58.6z"/>
<g>
	<polyline class="st1" points="150.6,127.5 163.3,153.5 178.9,144.3 	"/>
	<path class="st0" d="M163.3,157.5c-0.4,0-0.8-0.1-1.1-0.2c-1.1-0.3-2-1.1-2.5-2.1l-12.7-26c-1-2-0.1-4.4,1.8-5.3
		c2-1,4.4-0.1,5.3,1.8l10.8,22.1l11.9-7c1.9-1.1,4.4-0.5,5.5,1.4s0.5,4.4-1.4,5.5l-15.6,9.3C164.7,157.3,164,157.5,163.3,157.5z"/>
</g>
<path class="st0" d="M178.8,148.3c-0.7,0-1.4-0.2-2-0.6l-28.3-16.8c-1.9-1.1-2.5-3.6-1.4-5.5c1.1-1.9,3.6-2.5,5.5-1.4l28.3,16.8
	c1.9,1.1,2.5,3.6,1.4,5.5C181.5,147.6,180.2,148.3,178.8,148.3z"/>
</svg>
