<?xml version="1.0" encoding="utf-8"?>
<!-- Generator: Adobe Illustrator 21.0.0, SVG Export Plug-In . SVG Version: 6.00 Build 0)  -->
<svg version="1.1" xmlns="http://www.w3.org/2000/svg" xmlns:xlink="http://www.w3.org/1999/xlink" x="0px" y="0px"
	 viewBox="0 0 283.5 283.5" style="enable-background:new 0 0 283.5 283.5;" xml:space="preserve">
<style type="text/css">
	.st0{clip-path:url(#SVGID_2_);fill:none;stroke:#1D1D1B;stroke-width:8;stroke-linejoin:round;stroke-miterlimit:10;}
	.st1{fill:none;stroke:#1D1D1B;stroke-width:10;stroke-miterlimit:10;}
	.st2{fill:none;stroke:#1D1D1B;stroke-width:8;stroke-linecap:round;stroke-linejoin:round;stroke-miterlimit:10;}
	.st3{fill:none;stroke:#1D1D1B;stroke-width:10;stroke-linecap:round;stroke-linejoin:round;}
	.st4{fill:none;stroke:#1D1D1B;stroke-width:10;stroke-linecap:round;stroke-linejoin:round;stroke-dasharray:0.9527,20.9601;}
	.st5{fill:none;stroke:#1D1D1B;stroke-width:10;stroke-linecap:round;stroke-linejoin:round;stroke-miterlimit:10;}
	.st6{fill:#1D1D1B;}
	.st7{fill:#FFFFFF;stroke:#1D1D1B;stroke-width:5;stroke-linecap:round;stroke-linejoin:round;stroke-miterlimit:10;}
	.st8{fill:#FFFFFF;stroke:#1D1D1B;stroke-width:8;stroke-linecap:round;stroke-linejoin:round;stroke-miterlimit:10;}
	.st9{fill:none;stroke:#1D1D1B;stroke-width:8;stroke-linejoin:round;stroke-miterlimit:10;}
	.st10{fill:none;stroke:#1D1D1B;stroke-width:8;stroke-miterlimit:10;}
	.st11{fill:none;stroke:#1D1D1B;stroke-width:4;stroke-linecap:round;stroke-linejoin:round;stroke-miterlimit:10;}
	.st12{fill:none;stroke:#1D1D1B;stroke-width:17;stroke-linecap:round;stroke-miterlimit:10;}
	.st13{fill:#FFFFFF;stroke:#1D1D1B;stroke-width:8;stroke-miterlimit:10;}
	.st14{fill:none;stroke:#1D1D1B;stroke-width:8;stroke-linecap:round;stroke-miterlimit:10;}
	.st15{fill:none;stroke:#1D1D1B;stroke-width:10;stroke-linecap:round;stroke-miterlimit:10;}
	.st16{clip-path:url(#SVGID_4_);fill:none;stroke:#1D1D1B;stroke-width:8;stroke-linejoin:round;stroke-miterlimit:10;}
	.st17{fill:#FFFFFF;}
</style>
<g id="Calque_1">
	<path class="st5" d="M103.6,53.5c11.7-4.9,24.6-7.6,38.2-7.6c54.8,0,99.2,44.4,99.2,99.2s-44.4,99.2-99.2,99.2
		s-99.2-44.4-99.2-99.2c0-9,1.2-17.6,3.4-25.9"/>
	<g>
		<line class="st7" x1="60.1" y1="56.1" x2="57.6" y2="46.8"/>
		<line class="st7" x1="48.7" y1="62.7" x2="41.8" y2="55.9"/>
		<line class="st7" x1="42.1" y1="74.2" x2="32.7" y2="71.7"/>
		<line class="st7" x1="42.1" y1="87.4" x2="32.7" y2="89.9"/>
		<line class="st7" x1="48.7" y1="98.8" x2="41.8" y2="105.7"/>
		<line class="st7" x1="60.1" y1="105.4" x2="57.6" y2="114.8"/>
		<line class="st7" x1="73.3" y1="105.4" x2="75.8" y2="114.8"/>
		<line class="st7" x1="84.8" y1="98.8" x2="91.6" y2="105.7"/>
		<line class="st7" x1="91.4" y1="87.4" x2="100.7" y2="89.9"/>
		<line class="st7" x1="91.4" y1="74.2" x2="100.7" y2="71.7"/>
		<line class="st7" x1="84.8" y1="62.7" x2="91.6" y2="55.9"/>
		<line class="st7" x1="73.3" y1="56.1" x2="75.8" y2="46.8"/>
	</g>
	<polyline class="st2" points="114.4,209.8 114.4,79.8 180.5,79.8 180.5,209.8 162.3,209.8 	"/>
	<polygon class="st2" points="161.8,222.3 114.4,209.8 114.4,79.8 161.8,91.8 	"/>
	<circle class="st6" cx="147.5" cy="153" r="4.9"/>
</g>
<g id="Calque_2">
</g>
</svg>
