<?xml version="1.0" encoding="utf-8"?>
<!-- Generator: Adobe Illustrator 21.0.0, SVG Export Plug-In . SVG Version: 6.00 Build 0)  -->
<svg version="1.1" id="Calque_1" xmlns="http://www.w3.org/2000/svg" xmlns:xlink="http://www.w3.org/1999/xlink" x="0px" y="0px"
	 viewBox="0 0 283.5 283.5" style="enable-background:new 0 0 283.5 283.5;" xml:space="preserve">
<style type="text/css">
	.st0{fill:#1D1D1B;}
	.st1{fill:#FFFFFF;}
</style>
<title>icons</title>
<path class="st0" d="M141.6,249.1c-13.5,0-26.9-2.6-39.7-7.9c-25.7-10.6-45.7-30.6-56.4-56.3c-8.8-21.1-10.3-44.9-4.4-67
	c0.7-2.7,3.5-4.2,6.1-3.5c2.7,0.7,4.2,3.5,3.5,6.1c-5.4,20-4,41.5,4,60.6c9.6,23.2,27.8,41.3,51,50.9c23.2,9.6,48.8,9.6,72-0.1
	c23.2-9.6,41.3-27.8,50.9-51c9.6-23.2,9.6-48.8-0.1-72c-9.6-23.2-27.8-41.3-51-50.9c-23.2-9.6-48.8-9.6-72,0.1
	c-2.6,1.1-5.5-0.1-6.5-2.7c-1.1-2.6,0.1-5.5,2.7-6.5c25.7-10.7,54-10.7,79.7-0.1c25.7,10.6,45.7,30.6,56.4,56.3s10.7,54,0.1,79.7
	c-10.6,25.7-30.6,45.7-56.3,56.4C168.7,246.5,155.1,249.1,141.6,249.1z"/>
<path class="st0" d="M60.1,58.6c-1.1,0-2.1-0.7-2.4-1.9l-2.5-9.4c-0.4-1.3,0.4-2.7,1.8-3.1c1.3-0.4,2.7,0.4,3.1,1.8l2.5,9.4
	c0.4,1.3-0.4,2.7-1.8,3.1C60.6,58.6,60.3,58.6,60.1,58.6z"/>
<path class="st0" d="M48.7,65.2c-0.6,0-1.3-0.2-1.8-0.7l-6.9-6.9c-1-1-1-2.6,0-3.5c1-1,2.6-1,3.5,0l6.9,6.9c1,1,1,2.6,0,3.5
	C50,65,49.3,65.2,48.7,65.2z"/>
<path class="st0" d="M42.1,76.7c-0.2,0-0.4,0-0.6-0.1l-9.4-2.5c-1.3-0.4-2.1-1.7-1.8-3.1c0.4-1.3,1.7-2.1,3.1-1.8l9.4,2.5
	c1.3,0.4,2.1,1.7,1.8,3.1C44.2,75.9,43.2,76.7,42.1,76.7z"/>
<path class="st0" d="M32.7,92.4c-1.1,0-2.1-0.7-2.4-1.9c-0.4-1.3,0.4-2.7,1.8-3.1l9.4-2.5c1.3-0.4,2.7,0.4,3.1,1.8
	c0.4,1.3-0.4,2.7-1.8,3.1l-9.4,2.5C33.1,92.4,32.9,92.4,32.7,92.4z"/>
<path class="st0" d="M41.8,108.2c-0.6,0-1.3-0.2-1.8-0.7c-1-1-1-2.6,0-3.5l6.9-6.9c1-1,2.6-1,3.5,0c1,1,1,2.6,0,3.5l-6.9,6.9
	C43.1,107.9,42.5,108.2,41.8,108.2z"/>
<path class="st0" d="M57.6,117.3c-0.2,0-0.4,0-0.6-0.1c-1.3-0.4-2.1-1.7-1.8-3.1l2.5-9.4c0.4-1.3,1.7-2.1,3.1-1.8
	c1.3,0.4,2.1,1.7,1.8,3.1l-2.5,9.4C59.7,116.6,58.7,117.3,57.6,117.3z"/>
<path class="st0" d="M75.8,117.3c-1.1,0-2.1-0.7-2.4-1.9l-2.5-9.4c-0.4-1.3,0.4-2.7,1.8-3.1c1.3-0.4,2.7,0.4,3.1,1.8l2.5,9.4
	c0.4,1.3-0.4,2.7-1.8,3.1C76.3,117.3,76.1,117.3,75.8,117.3z"/>
<path class="st0" d="M91.6,108.2c-0.6,0-1.3-0.2-1.8-0.7l-6.9-6.9c-1-1-1-2.6,0-3.5c1-1,2.6-1,3.5,0l6.9,6.9c1,1,1,2.6,0,3.5
	C92.9,107.9,92.3,108.2,91.6,108.2z"/>
<path class="st0" d="M100.7,92.4c-0.2,0-0.4,0-0.7-0.1l-9.4-2.5c-1.3-0.4-2.1-1.7-1.8-3.1c0.4-1.3,1.7-2.1,3.1-1.8l9.4,2.5
	c1.3,0.4,2.1,1.7,1.8,3.1C102.9,91.7,101.8,92.4,100.7,92.4z"/>
<path class="st0" d="M91.4,76.7c-1.1,0-2.1-0.7-2.4-1.9c-0.4-1.3,0.4-2.7,1.8-3.1l9.4-2.5c1.3-0.4,2.7,0.4,3.1,1.8
	c0.4,1.3-0.4,2.7-1.8,3.1L92,76.6C91.8,76.6,91.6,76.7,91.4,76.7z"/>
<path class="st0" d="M84.8,65.2c-0.6,0-1.3-0.2-1.8-0.7c-1-1-1-2.6,0-3.5l6.9-6.9c1-1,2.6-1,3.5,0c1,1,1,2.6,0,3.5l-6.9,6.9
	C86,65,85.4,65.2,84.8,65.2z"/>
<path class="st0" d="M73.3,58.6c-0.2,0-0.4,0-0.6-0.1c-1.3-0.4-2.1-1.7-1.8-3.1l2.5-9.4c0.4-1.3,1.7-2.1,3.1-1.8
	c1.3,0.4,2.1,1.7,1.8,3.1l-2.5,9.4C75.4,57.9,74.4,58.6,73.3,58.6z"/>
<path class="st0" d="M180.5,213.8h-66.1c-2.2,0-4-1.8-4-4V79.8c0-2.2,1.8-4,4-4h66.1c2.2,0,4,1.8,4,4v130.1
	C184.5,212,182.7,213.8,180.5,213.8z M118.4,205.8h58.1V83.8h-58.1V205.8z"/>
<g>
	<polygon class="st1" points="161.8,222.3 114.4,209.8 114.4,79.8 161.8,91.8 	"/>
	<path class="st0" d="M161.8,226.3c-0.3,0-0.7,0-1-0.1l-47.4-12.4c-1.8-0.5-3-2.1-3-3.9V79.8c0-1.2,0.6-2.4,1.5-3.2s2.2-1,3.4-0.7
		l47.4,12c1.8,0.5,3,2,3,3.9v130.4c0,1.2-0.6,2.4-1.6,3.2C163.5,226,162.7,226.3,161.8,226.3z M118.4,206.8l39.4,10.3V94.9l-39.4-10
		V206.8z"/>
</g>
<circle class="st0" cx="147.5" cy="153" r="4.9"/>
</svg>
