<?xml version="1.0" encoding="utf-8"?>
<!-- Generator: Adobe Illustrator 21.0.0, SVG Export Plug-In . SVG Version: 6.00 Build 0)  -->
<svg version="1.1" id="Calque_1" xmlns="http://www.w3.org/2000/svg" xmlns:xlink="http://www.w3.org/1999/xlink" x="0px" y="0px"
	 viewBox="0 0 283.5 283.5" style="enable-background:new 0 0 283.5 283.5;" xml:space="preserve">
<style type="text/css">
	.st0{fill:#1D1D1B;}
</style>
<title>icons</title>
<path class="st0" d="M156,202.1c1.9,0,3.8-0.5,5.4-1.6c4-2.6,4.8-7.4,1.8-10.9l-38.5-44.2l38.5-44.2c3-3.4,2.2-8.3-1.8-10.8
	c-4-2.6-9.3-1.9-12.6,1.6l-42.5,48.8c-2.4,2.6-2.4,6.7,0,9.3l42.6,48.8C150.7,201,153.3,202.1,156,202.1z"/>
<path class="st0" d="M141.7,249.3c-57.5,0-104.2-46.7-104.2-104.2c0-57.5,46.7-104.2,104.2-104.2s104.2,46.7,104.2,104.2
	C245.9,202.6,199.2,249.3,141.7,249.3z M141.7,50.9c-51.9,0-94.2,42.3-94.2,94.2c0,51.9,42.3,94.2,94.2,94.2s94.2-42.3,94.2-94.2
	C235.9,93.1,193.7,50.9,141.7,50.9z"/>
</svg>
