<?xml version="1.0" encoding="utf-8"?>
<!-- Generator: Adobe Illustrator 21.0.0, SVG Export Plug-In . SVG Version: 6.00 Build 0)  -->
<svg version="1.1" id="Calque_1" xmlns="http://www.w3.org/2000/svg" xmlns:xlink="http://www.w3.org/1999/xlink" x="0px" y="0px"
	 viewBox="0 0 283.5 283.5" style="enable-background:new 0 0 283.5 283.5;" xml:space="preserve">
<style type="text/css">
	.st0{fill:#1D1D1B;}
</style>
<title>icons</title>
<path class="st0" d="M141.7,249.3c-26,0-52-9.6-72.2-29c-41.4-39.8-42.7-105.9-2.9-147.3c19.3-20.1,45.2-31.4,73.1-32
	c27.8-0.5,54.2,9.8,74.3,29.1c20.3,19.5,32,46.9,32,75.1c0,27.1-10.3,52.7-29.1,72.2C196.4,238.6,169.1,249.3,141.7,249.3z
	 M141.8,50.9c-0.6,0-1.3,0-1.9,0c-25.2,0.5-48.6,10.8-66.1,28.9C37.8,117.2,39,177,76.4,213c18.2,17.5,41.8,26.3,65.3,26.3
	c24.7,0,49.5-9.7,67.9-28.9l0,0c17-17.6,26.3-40.8,26.3-65.3c0-25.5-10.5-50.2-28.9-67.9C189.3,60.2,166.2,50.9,141.8,50.9z"/>
<path class="st0" d="M141.7,166.2c-22.3,0-40.5-18.2-40.5-40.5c0-22.3,18.2-40.5,40.5-40.5c22.3,0,40.5,18.2,40.5,40.5
	C182.2,148,164.1,166.2,141.7,166.2z M141.7,95.2c-16.8,0-30.5,13.7-30.5,30.5s13.7,30.5,30.5,30.5c16.8,0,30.5-13.7,30.5-30.5
	S158.6,95.2,141.7,95.2z"/>
<path class="st0" d="M84.1,231.4c-0.8-4.1-1.2-8.3-1.2-12.5c0-34.5,26.4-62.6,58.9-62.6s58.9,28.1,58.9,62.6c0,3.6-0.3,7.3-0.9,10.9
	l-9.9-1.6c0.5-3.1,0.8-6.2,0.8-9.3c0-29-21.9-52.6-48.9-52.6c-26.9,0-48.9,23.6-48.9,52.6c0,3.6,0.3,7.2,1,10.7L84.1,231.4z"/>
</svg>
