<?xml version="1.0" encoding="utf-8"?>
<!-- Generator: Adobe Illustrator 21.0.0, SVG Export Plug-In . SVG Version: 6.00 Build 0)  -->
<svg version="1.1" id="Calque_1" xmlns="http://www.w3.org/2000/svg" xmlns:xlink="http://www.w3.org/1999/xlink" x="0px" y="0px"
	 viewBox="0 0 283.5 283.5" style="enable-background:new 0 0 283.5 283.5;" xml:space="preserve">
<style type="text/css">
	.st0{fill:#FFD400;}
	.st1{fill:none;stroke:#FFB600;stroke-width:17;stroke-linecap:round;stroke-linejoin:round;stroke-miterlimit:10;}
	.st2{fill:#FFB600;}
	.st3{fill:#1D1D1B;}
	.st4{fill:url(#);}
</style>
<polygon class="st0" points="54,91.1 54,192.4 141.7,243.1 229.5,192.4 229.5,91.1 141.7,40.4 "/>
<polyline class="st1" points="116.1,202.2 118,203.3 143.5,218 209.6,179.9 209.6,103.6 143.5,65.4 116.3,81.2 "/>
<g>
	<path class="st2" d="M141.6,152.9l1.1-32.9c0-0.8,0.3-1.4,1-1.9c0.7-0.5,1.4-0.7,2-0.7l1.8,2.1v5.6c0,12.2-0.1,21.3-0.2,27.3
		l3.4-0.3c2.3,0,3.5,0.8,3.5,2.5c0,1.9-1.6,2.9-4.7,2.9c-1.3,0-1.9,0.3-1.9,1c0,2.6,0.1,6.3,0.3,10.9c0.2,4.6,0.5,7.4,0.9,8.3
		c-0.2,0.9-0.2,1.8-0.2,2.5c0,0.8,0.2,1.4,0.5,2v2.1c0,2.9-0.9,4.4-2.8,4.4c-1.2,0-2.1-0.6-2.8-1.8c-0.7-1.2-1-2.5-1-3.7v-0.4
		c0.4-1.5,0.6-2.9,0.6-4.2l-0.9-11.4l0.1-5.1c0-1.3-0.1-2.5-0.2-3.6l-6.4,0.6v0.1c-1.5,0-3-0.6-4.6-1.9c0-1.8,0.2-3.3,0.5-4.5
		c-0.3-1.8-0.5-4.1-0.5-6.7c0-2.6,0.3-6.6,0.9-12c0.6-5.4,0.9-9.3,0.9-11.9v-21.7c0-0.8,0.1-1.3,0.4-1.7c0.3-0.4,0.9-0.6,1.8-0.6
		c0.9,0,1.7,0.3,2.5,0.8c0.7,0.5,1.1,1.2,1.1,2.1l-0.5,9.1l-0.1,2.1c0,0.8,0.1,1.5,0.2,2.1v0.4c0.2,2.1,0.3,4.5,0.3,7.2
		c0,2.7-0.3,7.4-0.8,14c-0.6,6.6-0.8,11-0.8,13.1c0,2.1,0.1,3.6,0.2,4.5C138.6,153.5,140.1,153.3,141.6,152.9z"/>
</g>
</svg>
