<?xml version="1.0" encoding="utf-8"?>
<!-- Generator: Adobe Illustrator 21.0.0, SVG Export Plug-In . SVG Version: 6.00 Build 0)  -->
<svg version="1.1" id="Calque_1" xmlns="http://www.w3.org/2000/svg" xmlns:xlink="http://www.w3.org/1999/xlink" x="0px" y="0px"
	 viewBox="0 0 283.5 283.5" style="enable-background:new 0 0 283.5 283.5;" xml:space="preserve">
<style type="text/css">
	.st0{fill:#1D1D1B;}
</style>
<title>icons</title>
<path class="st0" d="M141.7,207.4c-32.7,0-59.3-26.6-59.3-59.3s26.6-59.3,59.3-59.3s59.3,26.6,59.3,59.3S174.4,207.4,141.7,207.4z
	 M141.7,96.8c-28.3,0-51.3,23-51.3,51.3s23,51.3,51.3,51.3s51.3-23,51.3-51.3S170,96.8,141.7,96.8z"/>
<path class="st0" d="M141.7,207.4c-2.2,0-4-1.8-4-4v-20.1c0-2.2,1.8-4,4-4s4,1.8,4,4v20.1C145.7,205.6,143.9,207.4,141.7,207.4z"/>
<path class="st0" d="M141.7,117c-2.2,0-4-1.8-4-4V92.8c0-2.2,1.8-4,4-4s4,1.8,4,4V113C145.7,115.2,143.9,117,141.7,117z"/>
<path class="st0" d="M106.6,152.1H86.5c-2.2,0-4-1.8-4-4s1.8-4,4-4h20.1c2.2,0,4,1.8,4,4S108.8,152.1,106.6,152.1z"/>
<path class="st0" d="M197,152.1h-20.1c-2.2,0-4-1.8-4-4s1.8-4,4-4H197c2.2,0,4,1.8,4,4S199.2,152.1,197,152.1z"/>
<path class="st0" d="M134.4,159.4c-1.4,0-2.8-0.7-3.5-2l-18.5-33.1c-0.9-1.6-0.6-3.5,0.7-4.8c1.3-1.3,3.2-1.5,4.8-0.7l33.1,18.5
	c1.9,1.1,2.6,3.5,1.5,5.4s-3.5,2.6-5.4,1.5l-20.7-11.6l11.6,20.7c1.1,1.9,0.4,4.4-1.5,5.4C135.8,159.2,135.1,159.4,134.4,159.4z"/>
<path class="st0" d="M167.5,177.9c-0.7,0-1.3-0.2-2-0.5l-33.1-18.5c-1.9-1.1-2.6-3.5-1.5-5.4s3.5-2.6,5.4-1.5l20.7,11.6l-11.6-20.7
	c-1.1-1.9-0.4-4.4,1.5-5.4c1.9-1.1,4.4-0.4,5.4,1.5l18.5,33.1c0.9,1.6,0.6,3.5-0.7,4.8C169.6,177.5,168.6,177.9,167.5,177.9z"/>
<circle class="st0" cx="141.7" cy="148.1" r="2.7"/>
<path class="st0" d="M141.6,249.1c-13.5,0-26.9-2.6-39.7-7.9c-25.7-10.6-45.7-30.6-56.4-56.3c-8.8-21.1-10.3-44.9-4.4-67
	c0.7-2.7,3.5-4.2,6.1-3.5c2.7,0.7,4.2,3.5,3.5,6.1c-5.4,20-4,41.5,4,60.6c9.6,23.2,27.8,41.3,51,50.9c23.2,9.6,48.8,9.6,72-0.1
	c23.2-9.6,41.3-27.8,50.9-51c9.6-23.2,9.6-48.8-0.1-72c-9.6-23.2-27.8-41.3-51-50.9s-48.8-9.6-72,0.1c-2.6,1.1-5.5-0.1-6.5-2.7
	c-1.1-2.6,0.1-5.5,2.7-6.5c25.7-10.7,54-10.7,79.7-0.1s45.7,30.6,56.4,56.3s10.7,54,0.1,79.7c-10.6,25.7-30.6,45.7-56.3,56.4
	C168.7,246.5,155.1,249.1,141.6,249.1z"/>
<path class="st0" d="M60.1,58.6c-1.1,0-2.1-0.7-2.4-1.9l-2.5-9.4c-0.4-1.3,0.4-2.7,1.8-3.1c1.3-0.4,2.7,0.4,3.1,1.8l2.5,9.4
	c0.4,1.3-0.4,2.7-1.8,3.1C60.6,58.6,60.3,58.6,60.1,58.6z"/>
<path class="st0" d="M48.7,65.2c-0.6,0-1.3-0.2-1.8-0.7L40,57.6c-1-1-1-2.6,0-3.5c1-1,2.6-1,3.5,0l6.9,6.9c1,1,1,2.6,0,3.5
	C50,65,49.3,65.2,48.7,65.2z"/>
<path class="st0" d="M42.1,76.7c-0.2,0-0.4,0-0.6-0.1l-9.4-2.5c-1.3-0.4-2.1-1.7-1.8-3.1c0.4-1.3,1.7-2.1,3.1-1.8l9.4,2.5
	c1.3,0.4,2.1,1.7,1.8,3.1C44.2,75.9,43.2,76.7,42.1,76.7z"/>
<path class="st0" d="M32.7,92.4c-1.1,0-2.1-0.7-2.4-1.9c-0.4-1.3,0.4-2.7,1.8-3.1l9.4-2.5c1.3-0.4,2.7,0.4,3.1,1.8
	c0.4,1.3-0.4,2.7-1.8,3.1l-9.4,2.5C33.1,92.4,32.9,92.4,32.7,92.4z"/>
<path class="st0" d="M41.8,108.2c-0.6,0-1.3-0.2-1.8-0.7c-1-1-1-2.6,0-3.5l6.9-6.9c1-1,2.6-1,3.5,0c1,1,1,2.6,0,3.5l-6.9,6.9
	C43.1,107.9,42.5,108.2,41.8,108.2z"/>
<path class="st0" d="M57.6,117.3c-0.2,0-0.4,0-0.6-0.1c-1.3-0.4-2.1-1.7-1.8-3.1l2.5-9.4c0.4-1.3,1.7-2.1,3.1-1.8
	c1.3,0.4,2.1,1.7,1.8,3.1l-2.5,9.4C59.7,116.6,58.7,117.3,57.6,117.3z"/>
<path class="st0" d="M75.8,117.3c-1.1,0-2.1-0.7-2.4-1.9l-2.5-9.4c-0.4-1.3,0.4-2.7,1.8-3.1c1.3-0.4,2.7,0.4,3.1,1.8l2.5,9.4
	c0.4,1.3-0.4,2.7-1.8,3.1C76.3,117.3,76.1,117.3,75.8,117.3z"/>
<path class="st0" d="M91.6,108.2c-0.6,0-1.3-0.2-1.8-0.7l-6.9-6.9c-1-1-1-2.6,0-3.5c1-1,2.6-1,3.5,0l6.9,6.9c1,1,1,2.6,0,3.5
	C92.9,107.9,92.3,108.2,91.6,108.2z"/>
<path class="st0" d="M100.7,92.4c-0.2,0-0.4,0-0.7-0.1l-9.4-2.5c-1.3-0.4-2.1-1.7-1.8-3.1c0.4-1.3,1.7-2.1,3.1-1.8l9.4,2.5
	c1.3,0.4,2.1,1.7,1.8,3.1C102.9,91.7,101.8,92.4,100.7,92.4z"/>
<path class="st0" d="M91.4,76.7c-1.1,0-2.1-0.7-2.4-1.9c-0.4-1.3,0.4-2.7,1.8-3.1l9.4-2.5c1.3-0.4,2.7,0.4,3.1,1.8
	c0.4,1.3-0.4,2.7-1.8,3.1L92,76.6C91.8,76.6,91.6,76.7,91.4,76.7z"/>
<path class="st0" d="M84.8,65.2c-0.6,0-1.3-0.2-1.8-0.7c-1-1-1-2.6,0-3.5l6.9-6.9c1-1,2.6-1,3.5,0c1,1,1,2.6,0,3.5l-6.9,6.9
	C86,65,85.4,65.2,84.8,65.2z"/>
<path class="st0" d="M73.3,58.6c-0.2,0-0.4,0-0.6-0.1c-1.3-0.4-2.1-1.7-1.8-3.1l2.5-9.4c0.4-1.3,1.7-2.1,3.1-1.8
	c1.3,0.4,2.1,1.7,1.8,3.1l-2.5,9.4C75.4,57.9,74.4,58.6,73.3,58.6z"/>
</svg>
