<?xml version="1.0" encoding="utf-8"?>
<!-- Generator: Adobe Illustrator 21.0.0, SVG Export Plug-In . SVG Version: 6.00 Build 0)  -->
<svg version="1.1" id="Calque_1" xmlns="http://www.w3.org/2000/svg" xmlns:xlink="http://www.w3.org/1999/xlink" x="0px" y="0px"
	 viewBox="0 0 283.5 283.5" style="enable-background:new 0 0 283.5 283.5;" xml:space="preserve">
<style type="text/css">
	.st0{fill:#1D1D1B;}
</style>
<title>icons</title>
<path class="st0" d="M200.5,229.6c-1.5,0-3-0.7-4-2c-1.7-2.2-1.2-5.3,1-7l0.4-0.3c2.2-1.7,5.3-1.2,7,1s1.2,5.3-1,7l-0.4,0.3
	C202.6,229.3,201.5,229.6,200.5,229.6z"/>
<path class="st0" d="M139.8,248.9c0,0-0.1,0-0.1,0l-1,0c-2.8-0.1-4.9-2.4-4.8-5.2c0.1-2.7,2.3-4.8,5-4.8c0.1,0,0.1,0,0.2,0l0.9,0
	c2.8,0.1,5,2.3,4.9,5.1C144.7,246.7,142.5,248.9,139.8,248.9z M160.6,247.1c-2.3,0-4.4-1.7-4.9-4c-0.5-2.7,1.2-5.3,4-5.9l0.9-0.2
	c2.7-0.6,5.3,1.2,5.9,3.9c0.6,2.7-1.2,5.3-3.9,5.9l-1,0.2C161.3,247,160.9,247.1,160.6,247.1z M118.1,246c-0.4,0-0.8,0-1.2-0.1
	l-1-0.2c-2.7-0.7-4.3-3.4-3.6-6.1c0.7-2.7,3.4-4.3,6.1-3.6l0.9,0.2c2.7,0.7,4.3,3.4,3.7,6.1C122.4,244.5,120.4,246,118.1,246z
	 M181.5,240.6c-1.9,0-3.8-1.1-4.6-3c-1.1-2.5,0.1-5.5,2.6-6.6c0.3-0.1,0.5-0.2,0.8-0.4c2.5-1.1,5.5,0,6.6,2.5c1.1,2.5,0,5.5-2.5,6.6
	c-0.3,0.1-0.6,0.3-0.9,0.4C182.9,240.4,182.2,240.6,181.5,240.6z M97.6,238.5c-0.7,0-1.5-0.2-2.2-0.5l-0.9-0.4
	c-2.5-1.3-3.4-4.3-2.2-6.7c1.3-2.5,4.3-3.4,6.7-2.2l0.8,0.4c2.5,1.2,3.5,4.2,2.3,6.7C101.2,237.5,99.4,238.5,97.6,238.5z
	 M79.2,226.7c-1.1,0-2.2-0.4-3.2-1.1l-0.8-0.6c-2.1-1.8-2.4-4.9-0.7-7s4.9-2.4,7-0.7l0.7,0.6c2.1,1.7,2.5,4.9,0.7,7
	C82.1,226,80.6,226.7,79.2,226.7z M63.8,211.1c-1.5,0-2.9-0.7-3.9-1.9l-0.6-0.8c-1.7-2.2-1.3-5.3,0.9-7c2.2-1.7,5.3-1.3,7,0.9
	l0.6,0.7c1.7,2.2,1.3,5.3-0.8,7C66,210.8,64.9,211.1,63.8,211.1z M52.3,192.6c-1.9,0-3.7-1-4.5-2.8l-0.4-0.9
	c-1.2-2.5-0.1-5.5,2.4-6.7c2.5-1.2,5.5-0.1,6.7,2.4l0.4,0.8c1.2,2.5,0.1,5.5-2.3,6.7C53.7,192.4,53,192.6,52.3,192.6z M45,171.9
	c-2.3,0-4.3-1.6-4.9-3.9l-0.2-1c-0.6-2.7,1.1-5.4,3.8-6c2.7-0.6,5.4,1.1,6,3.8l0.2,0.9c0.6,2.7-1.1,5.4-3.7,6
	C45.8,171.9,45.4,171.9,45,171.9z"/>
<path class="st0" d="M42.5,150.2c-2.8,0-5-2.2-5-5v-0.5c0-2.8,2.2-5,5-5s5,2.2,5,5v0.5C47.5,147.9,45.3,150.2,42.5,150.2z"/>
<path class="st0" d="M200.9,229.3c-1.5,0-3-0.7-4-2c-1.6-2.2-1.2-5.3,1-7c10-7.5,18.4-16.7,24.8-27.4
	c26.6-44.6,11.9-102.6-32.7-129.2c-21.6-12.9-47-16.6-71.4-10.4c-24.4,6.2-44.9,21.5-57.8,43.1c-1.4,2.4-4.5,3.2-6.9,1.7
	c-2.4-1.4-3.1-4.5-1.7-6.9c14.3-23.9,37-40.8,63.9-47.7c27-6.8,55-2.7,78.9,11.5c49.4,29.4,65.6,93.5,36.2,142.9
	c-7.1,11.9-16.3,22.1-27.4,30.3C202.9,229,201.9,229.3,200.9,229.3z"/>
<path class="st0" d="M52.6,102.8c-1.2,0-2.3-0.4-3.2-1.2c-1.1-0.9-1.8-2.3-1.8-3.8l-0.6-40.9c0-2.8,2.2-5,4.9-5.1
	c2.8,0,5,2.2,5.1,4.9l0.5,35.1l34.7-5.6c2.7-0.4,5.3,1.4,5.7,4.1c0.4,2.7-1.4,5.3-4.1,5.7l-40.4,6.5
	C53.2,102.7,52.9,102.8,52.6,102.8z"/>
</svg>
