<?xml version="1.0" encoding="utf-8"?>
<!-- Generator: Adobe Illustrator 21.0.0, SVG Export Plug-In . SVG Version: 6.00 Build 0)  -->
<svg version="1.1" xmlns="http://www.w3.org/2000/svg" xmlns:xlink="http://www.w3.org/1999/xlink" x="0px" y="0px"
	 viewBox="0 0 283.5 283.5" style="enable-background:new 0 0 283.5 283.5;" xml:space="preserve">
<style type="text/css">
	.st0{clip-path:url(#SVGID_2_);fill:none;stroke:#1D1D1B;stroke-width:8;stroke-linejoin:round;stroke-miterlimit:10;}
	.st1{fill:none;stroke:#1D1D1B;stroke-width:10;stroke-miterlimit:10;}
	.st2{fill:none;stroke:#1D1D1B;stroke-width:8;stroke-linecap:round;stroke-linejoin:round;stroke-miterlimit:10;}
	.st3{fill:none;stroke:#1D1D1B;stroke-width:10;stroke-linecap:round;stroke-linejoin:round;}
	.st4{fill:none;stroke:#1D1D1B;stroke-width:10;stroke-linecap:round;stroke-linejoin:round;stroke-dasharray:0.9527,20.9601;}
	.st5{fill:none;stroke:#1D1D1B;stroke-width:10;stroke-linecap:round;stroke-linejoin:round;stroke-miterlimit:10;}
	.st6{fill:#1D1D1B;}
	.st7{fill:#FFFFFF;stroke:#1D1D1B;stroke-width:5;stroke-linecap:round;stroke-linejoin:round;stroke-miterlimit:10;}
	.st8{fill:none;stroke:#1D1D1B;stroke-width:8;stroke-linejoin:round;stroke-miterlimit:10;}
	.st9{fill:none;stroke:#1D1D1B;stroke-width:8;stroke-miterlimit:10;}
	.st10{fill:none;stroke:#1D1D1B;stroke-width:4;stroke-linecap:round;stroke-linejoin:round;stroke-miterlimit:10;}
	.st11{fill:none;stroke:#1D1D1B;stroke-width:17;stroke-linecap:round;stroke-miterlimit:10;}
	.st12{fill:none;stroke:#1D1D1B;stroke-width:8;stroke-linecap:round;stroke-miterlimit:10;}
	.st13{fill:none;stroke:#1D1D1B;stroke-width:10;stroke-linecap:round;stroke-miterlimit:10;}
	.st14{fill:#FFFFFF;stroke:#1D1D1B;stroke-width:8;stroke-linecap:round;stroke-linejoin:round;stroke-miterlimit:10;}
	.st15{clip-path:url(#SVGID_4_);fill:none;stroke:#1D1D1B;stroke-width:8;stroke-linejoin:round;stroke-miterlimit:10;}
</style>
<g id="Calque_1">
	<path class="st5" d="M103.6,53.5c11.7-4.9,24.6-7.6,38.2-7.6c54.8,0,99.2,44.4,99.2,99.2s-44.4,99.2-99.2,99.2
		s-99.2-44.4-99.2-99.2c0-9,1.2-17.6,3.4-25.9"/>
	<g>
		<line class="st7" x1="60.1" y1="56.1" x2="57.6" y2="46.8"/>
		<line class="st7" x1="48.7" y1="62.7" x2="41.8" y2="55.9"/>
		<line class="st7" x1="42.1" y1="74.2" x2="32.7" y2="71.7"/>
		<line class="st7" x1="42.1" y1="87.4" x2="32.7" y2="89.9"/>
		<line class="st7" x1="48.7" y1="98.8" x2="41.8" y2="105.7"/>
		<line class="st7" x1="60.1" y1="105.4" x2="57.6" y2="114.8"/>
		<line class="st7" x1="73.3" y1="105.4" x2="75.8" y2="114.8"/>
		<line class="st7" x1="84.8" y1="98.8" x2="91.6" y2="105.7"/>
		<line class="st7" x1="91.4" y1="87.4" x2="100.7" y2="89.9"/>
		<line class="st7" x1="91.4" y1="74.2" x2="100.7" y2="71.7"/>
		<line class="st7" x1="84.8" y1="62.7" x2="91.6" y2="55.9"/>
		<line class="st7" x1="73.3" y1="56.1" x2="75.8" y2="46.8"/>
	</g>
	<path class="st6" d="M96.2,180.5c-1,0-2-0.4-2.8-1.2c-1.6-1.6-1.6-4.1,0-5.7l10.2-10.2c1.6-1.6,4.1-1.6,5.7,0
		c1.6,1.6,1.6,4.1,0,5.7l-10.2,10.2C98.3,180.2,97.3,180.5,96.2,180.5z"/>
	<path class="st6" d="M194.6,180.5c-1,0-2-0.4-2.8-1.2l-10.2-10.2c-1.6-1.6-1.6-4.1,0-5.7c1.6-1.6,4.1-1.6,5.7,0l10.2,10.2
		c1.6,1.6,1.6,4.1,0,5.7C196.7,180.2,195.6,180.5,194.6,180.5z"/>
	<path class="st2" d="M158.9,176.5c0,7.4-6,13.4-13.4,13.4c-7.4,0-13.4-6-13.4-13.4H96.2v35.6h98.4v-35.6H158.9z"/>
	<path class="st6" d="M175.7,95.3c-0.7,0-1.4-0.2-2-0.6L151,81.3c-1.9-1.1-2.5-3.6-1.4-5.5c1.1-1.9,3.6-2.5,5.5-1.4l22.6,13.4
		c1.9,1.1,2.5,3.6,1.4,5.5C178.4,94.6,177.1,95.3,175.7,95.3z"/>
	<path class="st6" d="M163.2,102.7c-0.4,0-0.8-0.1-1.1-0.2c-1.1-0.3-2-1.1-2.5-2.1l-10.2-20.8c-1-2-0.1-4.4,1.8-5.3
		c2-1,4.4-0.1,5.3,1.8l8.2,16.9l8.7-5.2c1.9-1.1,4.4-0.5,5.5,1.4c1.1,1.9,0.5,4.4-1.4,5.5l-12.5,7.4
		C164.7,102.5,164,102.7,163.2,102.7z"/>
	<path class="st6" d="M167.4,150.5c-1.6-1.4-4-1.2-5.4,0.4l-12.4,14.4v-37.8c0-2.2-1.8-4-4-4s-4,1.8-4,4v36.8L130,150.9
		c-1.4-1.6-3.8-1.8-5.4-0.4c-1.6,1.4-1.8,3.8-0.4,5.4l18.9,21.9c0.7,0.8,1.8,1.3,2.9,1.3c1.1,0,2.2-0.5,2.9-1.3l18.9-21.9
		C169.1,154.3,169,151.9,167.4,150.5z"/>
	<g>
		<polygon class="st6" points="152.1,162.4 149.6,165.2 149.6,162.4 141.6,162.4 141.6,164.3 140,162.4 129.9,162.4 136.8,170.4 
			155.2,170.4 162.1,162.4 		"/>
		<path class="st6" d="M126.6,162.4h-20.2c-2.2,0-4,1.8-4,4s1.8,4,4,4h27.1L126.6,162.4z"/>
		<path class="st6" d="M184.5,162.4h-19l-6.9,8h25.9c2.2,0,4-1.8,4-4S186.7,162.4,184.5,162.4z"/>
	</g>
	<g>
		<rect x="141.6" y="149.1" class="st6" width="8" height="8"/>
		<path class="st6" d="M130,150.9c-0.8-0.9-1.8-1.3-2.9-1.3c-0.9,0-1.8,0.3-2.5,0.9c-1.6,1.4-1.8,3.8-0.4,5.4l1,1.2h10.1L130,150.9z
			"/>
		<path class="st6" d="M164.9,149.6c-1.1,0-2.1,0.4-2.9,1.3l-5.3,6.2h10.1l1-1.2c1.4-1.6,1.2-4-0.4-5.4
			C166.7,149.9,165.8,149.6,164.9,149.6z"/>
		<path class="st6" d="M175.7,87.3c-2.2,0-4,1.8-4,4v57.8h-2.2c1,1,1.6,2.4,1.7,3.8c0.1,1.5-0.3,3-1.2,4.2h5.7c2.2,0,4-1.8,4-4V91.3
			C179.7,89.1,177.9,87.3,175.7,87.3z"/>
		<path class="st6" d="M131.9,149.3l6.7,7.8h0.4v-8h-7.4C131.8,149.1,131.9,149.2,131.9,149.3z"/>
		<path class="st6" d="M120.9,152.9c0.1-1.5,0.7-2.8,1.7-3.8h-2.2V81.9h32.8c2.2,0,4-1.8,4-4s-1.8-4-4-4h-36.8c-2.2,0-4,1.8-4,4
			v75.2c0,2.2,1.8,4,4,4h5.7C121.2,155.9,120.7,154.4,120.9,152.9z"/>
		<path class="st6" d="M152.1,157.1h1.3l6.8-7.8c0.1-0.1,0.1-0.1,0.2-0.2h-8.2V157.1z"/>
	</g>
</g>
<g id="Calque_2">
</g>
</svg>
