<?xml version="1.0" encoding="utf-8"?>
<!-- Generator: Adobe Illustrator 21.0.0, SVG Export Plug-In . SVG Version: 6.00 Build 0)  -->
<svg version="1.1" id="Calque_1" xmlns="http://www.w3.org/2000/svg" xmlns:xlink="http://www.w3.org/1999/xlink" x="0px" y="0px"
	 viewBox="0 0 283.5 283.5" style="enable-background:new 0 0 283.5 283.5;" xml:space="preserve">
<style type="text/css">
	.st0{fill:#1D1D1B;}
	.st1{fill:#FFFFFF;}
</style>
<title>icons</title>
<path class="st0" d="M141.6,249.1c-13.5,0-26.9-2.6-39.7-7.9c-25.7-10.6-45.7-30.6-56.4-56.3c-8.8-21.1-10.3-44.9-4.4-67
	c0.7-2.7,3.5-4.2,6.1-3.5c2.7,0.7,4.2,3.5,3.5,6.1c-5.4,20-4,41.5,4,60.6c9.6,23.2,27.8,41.3,51,50.9c23.2,9.6,48.8,9.6,72-0.1
	c23.2-9.6,41.3-27.8,50.9-51c9.6-23.2,9.6-48.8-0.1-72c-9.6-23.2-27.8-41.3-51-50.9c-23.2-9.6-48.8-9.6-72,0.1
	c-2.6,1.1-5.5-0.1-6.5-2.7c-1.1-2.6,0.1-5.5,2.7-6.5c25.7-10.7,54-10.7,79.7-0.1c25.7,10.6,45.7,30.6,56.4,56.3s10.7,54,0.1,79.7
	c-10.6,25.7-30.6,45.7-56.3,56.4C168.7,246.5,155.1,249.1,141.6,249.1z"/>
<path class="st0" d="M60.1,58.6c-1.1,0-2.1-0.7-2.4-1.9l-2.5-9.4c-0.4-1.3,0.4-2.7,1.8-3.1c1.3-0.4,2.7,0.4,3.1,1.8l2.5,9.4
	c0.4,1.3-0.4,2.7-1.8,3.1C60.6,58.6,60.3,58.6,60.1,58.6z"/>
<path class="st0" d="M48.7,65.2c-0.6,0-1.3-0.2-1.8-0.7l-6.9-6.9c-1-1-1-2.6,0-3.5c1-1,2.6-1,3.5,0l6.9,6.9c1,1,1,2.6,0,3.5
	C50,65,49.3,65.2,48.7,65.2z"/>
<path class="st0" d="M42.1,76.7c-0.2,0-0.4,0-0.6-0.1l-9.4-2.5c-1.3-0.4-2.1-1.7-1.8-3.1c0.4-1.3,1.7-2.1,3.1-1.8l9.4,2.5
	c1.3,0.4,2.1,1.7,1.8,3.1C44.2,75.9,43.2,76.7,42.1,76.7z"/>
<path class="st0" d="M32.7,92.4c-1.1,0-2.1-0.7-2.4-1.9c-0.4-1.3,0.4-2.7,1.8-3.1l9.4-2.5c1.3-0.4,2.7,0.4,3.1,1.8
	c0.4,1.3-0.4,2.7-1.8,3.1l-9.4,2.5C33.1,92.4,32.9,92.4,32.7,92.4z"/>
<path class="st0" d="M41.8,108.2c-0.6,0-1.3-0.2-1.8-0.7c-1-1-1-2.6,0-3.5l6.9-6.9c1-1,2.6-1,3.5,0c1,1,1,2.6,0,3.5l-6.9,6.9
	C43.1,107.9,42.5,108.2,41.8,108.2z"/>
<path class="st0" d="M57.6,117.3c-0.2,0-0.4,0-0.6-0.1c-1.3-0.4-2.1-1.7-1.8-3.1l2.5-9.4c0.4-1.3,1.7-2.1,3.1-1.8
	c1.3,0.4,2.1,1.7,1.8,3.1l-2.5,9.4C59.7,116.6,58.7,117.3,57.6,117.3z"/>
<path class="st0" d="M75.8,117.3c-1.1,0-2.1-0.7-2.4-1.9l-2.5-9.4c-0.4-1.3,0.4-2.7,1.8-3.1c1.3-0.4,2.7,0.4,3.1,1.8l2.5,9.4
	c0.4,1.3-0.4,2.7-1.8,3.1C76.3,117.3,76.1,117.3,75.8,117.3z"/>
<path class="st0" d="M91.6,108.2c-0.6,0-1.3-0.2-1.8-0.7l-6.9-6.9c-1-1-1-2.6,0-3.5c1-1,2.6-1,3.5,0l6.9,6.9c1,1,1,2.6,0,3.5
	C92.9,107.9,92.3,108.2,91.6,108.2z"/>
<path class="st0" d="M100.7,92.4c-0.2,0-0.4,0-0.7-0.1l-9.4-2.5c-1.3-0.4-2.1-1.7-1.8-3.1c0.4-1.3,1.7-2.1,3.1-1.8l9.4,2.5
	c1.3,0.4,2.1,1.7,1.8,3.1C102.9,91.7,101.8,92.4,100.7,92.4z"/>
<path class="st0" d="M91.4,76.7c-1.1,0-2.1-0.7-2.4-1.9c-0.4-1.3,0.4-2.7,1.8-3.1l9.4-2.5c1.3-0.4,2.7,0.4,3.1,1.8
	c0.4,1.3-0.4,2.7-1.8,3.1L92,76.6C91.8,76.6,91.6,76.7,91.4,76.7z"/>
<path class="st0" d="M84.8,65.2c-0.6,0-1.3-0.2-1.8-0.7c-1-1-1-2.6,0-3.5l6.9-6.9c1-1,2.6-1,3.5,0c1,1,1,2.6,0,3.5l-6.9,6.9
	C86,65,85.4,65.2,84.8,65.2z"/>
<path class="st0" d="M73.3,58.6c-0.2,0-0.4,0-0.6-0.1c-1.3-0.4-2.1-1.7-1.8-3.1l2.5-9.4c0.4-1.3,1.7-2.1,3.1-1.8
	c1.3,0.4,2.1,1.7,1.8,3.1l-2.5,9.4C75.4,57.9,74.4,58.6,73.3,58.6z"/>
<path class="st0" d="M96.2,180.5c-1,0-2-0.4-2.8-1.2c-1.6-1.6-1.6-4.1,0-5.7l10.1-10.2c1.6-1.6,4.1-1.6,5.7,0c1.6,1.6,1.6,4.1,0,5.7
	l-10.1,10.2C98.3,180.2,97.3,180.5,96.2,180.5z"/>
<path class="st0" d="M194.6,180.5c-1,0-2-0.4-2.8-1.2l-10.2-10.2c-1.6-1.6-1.6-4.1,0-5.7c1.6-1.6,4.1-1.6,5.7,0l10.2,10.2
	c1.6,1.6,1.6,4.1,0,5.7C196.7,180.2,195.6,180.5,194.6,180.5z"/>
<g>
	<path class="st1" d="M158.9,176.6c0,7.4-6,13.4-13.4,13.4c-7.4,0-13.4-6-13.4-13.4H96.2v35.6h98.4v-35.6H158.9z"/>
	<path class="st0" d="M194.6,216.2H96.2c-2.2,0-4-1.8-4-4v-35.6c0-2.2,1.8-4,4-4H132c2.2,0,4,1.8,4,4c0,5.2,4.2,9.4,9.4,9.4
		s9.4-4.2,9.4-9.4c0-2.2,1.8-4,4-4h35.8c2.2,0,4,1.8,4,4v35.6C198.6,214.4,196.8,216.2,194.6,216.2z M100.2,208.2h90.4v-27.6h-28.2
		c-1.8,7.7-8.7,13.4-17,13.4c-8.2,0-15.2-5.7-17-13.4h-28.2V208.2z"/>
</g>
<path class="st0" d="M175.7,157.1h-59.4c-2.2,0-4-1.8-4-4V77.9c0-2.2,1.8-4,4-4h36.8c2.2,0,4,1.8,4,4s-1.8,4-4,4h-32.8v67.2h51.4
	V91.3c0-2.2,1.8-4,4-4s4,1.8,4,4v61.8C179.7,155.3,177.9,157.1,175.7,157.1z"/>
<path class="st0" d="M175.7,95.3c-0.7,0-1.4-0.2-2-0.6L151,81.3c-1.9-1.1-2.5-3.6-1.4-5.5c1.1-1.9,3.6-2.5,5.5-1.4l22.6,13.4
	c1.9,1.1,2.5,3.6,1.4,5.5C178.4,94.6,177.1,95.3,175.7,95.3z"/>
<path class="st0" d="M163.2,102.7c-0.4,0-0.8-0.1-1.1-0.2c-1.1-0.3-2-1.1-2.5-2.1l-10.2-20.9c-1-2-0.1-4.4,1.8-5.3
	c2-1,4.4-0.1,5.3,1.8l8.2,16.9l8.7-5.2c1.9-1.1,4.4-0.5,5.5,1.4c1.1,1.9,0.5,4.4-1.4,5.5l-12.5,7.4
	C164.7,102.5,164,102.7,163.2,102.7z"/>
<path class="st0" d="M184.5,170.4h-78.1c-2.2,0-4-1.8-4-4s1.8-4,4-4h78.1c2.2,0,4,1.8,4,4S186.7,170.4,184.5,170.4z"/>
<path class="st0" d="M146,180.3c-1.5,0-2.9-0.6-3.8-1.8l-18.9-21.9c-1.8-2.1-1.6-5.3,0.5-7.1c2.1-1.8,5.3-1.6,7.1,0.5l9.4,10.9
	v-33.5c0-2.9,2.4-5.2,5.2-5.2s5.2,2.4,5.2,5.2v34.4l10.2-11.8c1.8-2.1,5-2.3,7.1-0.5c2.1,1.8,2.3,5,0.5,7.1l-18.9,21.9
	C148.9,179.6,147.5,180.3,146,180.3z"/>
<path class="st1" d="M145.6,123.5c2.2,0,4,1.8,4,4v37.8l12.4-14.4c1.4-1.6,3.8-1.8,5.4-0.4c1.6,1.4,1.8,3.8,0.4,5.4l-18.9,21.9
	c-1.4,1.6-3.8,1.8-5.4,0.4c-0.1-0.1-0.3-0.3-0.4-0.4l-18.9-21.9c-1.4-1.6-1.2-4,0.4-5.4c1.6-1.4,4-1.2,5.4,0.4l11.6,13.4v-36.8
	C141.6,125.3,143.4,123.5,145.6,123.5 M145.6,121c-3.6,0-6.5,2.9-6.5,6.5v30.1l-7.2-8.3c-2.3-2.6-6.3-2.9-8.9-0.6
	c-2.6,2.3-2.9,6.3-0.6,8.9l18.9,21.9c2.3,2.6,6.3,2.9,8.9,0.7c0.2-0.2,0.5-0.4,0.7-0.7l18.9-21.9c2.3-2.6,2-6.6-0.6-8.9
	s-6.6-2-8.9,0.6l-8,9.3v-31.1C152.1,123.9,149.2,121,145.6,121L145.6,121z"/>
</svg>
