<?xml version="1.0" encoding="utf-8"?>
<!-- Generator: Adobe Illustrator 21.0.0, SVG Export Plug-In . SVG Version: 6.00 Build 0)  -->
<svg version="1.1" id="Calque_1" xmlns="http://www.w3.org/2000/svg" xmlns:xlink="http://www.w3.org/1999/xlink" x="0px" y="0px"
	 viewBox="0 0 283.5 283.5" style="enable-background:new 0 0 283.5 283.5;" xml:space="preserve">
<style type="text/css">
	.st0{fill:#1D1D1B;}
</style>
<title>icons</title>
<path class="st0" d="M131.5,201.7c-1.9,0-3.8-0.5-5.4-1.6c-4-2.6-4.8-7.4-1.8-10.9l38.5-44.2l-38.5-44.2c-3-3.4-2.2-8.3,1.8-10.8
	c4-2.6,9.3-1.9,12.6,1.6l42.5,48.8c2.4,2.6,2.4,6.7,0,9.3l-42.5,48.8C136.8,200.6,134.2,201.7,131.5,201.7z"/>
<path class="st0" d="M145.8,248.9c-57.5,0-104.2-46.7-104.2-104.2S88.3,40.4,145.8,40.4c57.5,0,104.2,46.7,104.2,104.2
	S203.2,248.9,145.8,248.9z M145.8,50.4c-51.9,0-94.2,42.3-94.2,94.2c0,51.9,42.3,94.2,94.2,94.2c51.9,0,94.2-42.3,94.2-94.2
	C240,92.7,197.7,50.4,145.8,50.4z"/>
</svg>
