<?xml version="1.0" encoding="utf-8"?>
<!-- Generator: Adobe Illustrator 21.0.0, SVG Export Plug-In . SVG Version: 6.00 Build 0)  -->
<svg version="1.1" id="Calque_1" xmlns="http://www.w3.org/2000/svg" xmlns:xlink="http://www.w3.org/1999/xlink" x="0px" y="0px"
	 viewBox="0 0 283.5 283.5" style="enable-background:new 0 0 283.5 283.5;" xml:space="preserve">
<style type="text/css">
	.st0{fill:#1D1D1B;}
</style>
<title>icons</title>
<path class="st0" d="M167,211.6h-48.9c-2,0-3.7-1.5-4-3.5l-10.7-87.3c-0.1-1.1,0.2-2.3,1-3.1c0.8-0.9,1.8-1.3,3-1.3h70.9
	c1.1,0,2.2,0.5,3,1.4c0.8,0.9,1.1,2,1,3.2l-11.2,87.3C170.7,210.1,169,211.6,167,211.6z M121.6,203.6h41.9l10.2-79.3h-61.8
	L121.6,203.6z"/>
<path class="st0" d="M178.2,111.6h-70.9c-2.2,0-4-1.8-4-4s1.8-4,4-4h70.9c2.2,0,4,1.8,4,4S180.4,111.6,178.2,111.6z"/>
<path class="st0" d="M154,111.6h-22.4c-2.2,0-4-1.8-4-4V95.3c0-2.2,1.8-4,4-4H154c2.2,0,4,1.8,4,4v12.3
	C158,109.9,156.2,111.6,154,111.6z M135.6,103.6H150v-4.3h-14.4V103.6z"/>
<path class="st0" d="M134.7,198.5c-2.1,0-3.9-1.6-4-3.8l-3.4-61.2c-0.1-2.2,1.6-4.1,3.8-4.2c2.2-0.1,4.1,1.6,4.2,3.8l3.4,61.2
	c0.1,2.2-1.6,4.1-3.8,4.2C134.9,198.5,134.8,198.5,134.7,198.5z"/>
<path class="st0" d="M150.6,198.5c-0.1,0-0.2,0-0.2,0c-2.2-0.1-3.9-2-3.8-4.2l3.4-61.2c0.1-2.2,2-3.9,4.2-3.8c2.2,0.1,3.9,2,3.8,4.2
	l-3.4,61.2C154.4,196.8,152.7,198.5,150.6,198.5z"/>
<path class="st0" d="M141.6,249.1c-13.5,0-26.9-2.6-39.7-7.9c-25.7-10.6-45.7-30.6-56.4-56.3c-8.8-21.1-10.3-44.9-4.4-67
	c0.7-2.7,3.5-4.2,6.1-3.5c2.7,0.7,4.2,3.5,3.5,6.1c-5.4,20-4,41.5,4,60.6c9.6,23.2,27.8,41.3,51,50.9c23.2,9.6,48.8,9.6,72-0.1
	c23.2-9.6,41.3-27.8,50.9-51c9.6-23.2,9.6-48.8-0.1-72c-9.6-23.2-27.8-41.3-51-50.9c-23.2-9.6-48.8-9.6-72,0.1
	c-2.6,1.1-5.5-0.1-6.5-2.7c-1.1-2.6,0.1-5.5,2.7-6.5c25.7-10.7,54-10.7,79.7-0.1c25.7,10.6,45.7,30.6,56.4,56.3s10.7,54,0.1,79.7
	c-10.6,25.7-30.6,45.7-56.3,56.4C168.7,246.5,155.1,249.1,141.6,249.1z"/>
<path class="st0" d="M60.1,58.6c-1.1,0-2.1-0.7-2.4-1.9l-2.5-9.4c-0.4-1.3,0.4-2.7,1.8-3.1c1.3-0.4,2.7,0.4,3.1,1.8l2.5,9.4
	c0.4,1.3-0.4,2.7-1.8,3.1C60.6,58.6,60.3,58.6,60.1,58.6z"/>
<path class="st0" d="M48.7,65.2c-0.6,0-1.3-0.2-1.8-0.7l-6.9-6.9c-1-1-1-2.6,0-3.5c1-1,2.6-1,3.5,0l6.9,6.9c1,1,1,2.6,0,3.5
	C50,65,49.3,65.2,48.7,65.2z"/>
<path class="st0" d="M42.1,76.7c-0.2,0-0.4,0-0.6-0.1l-9.4-2.5c-1.3-0.4-2.1-1.7-1.8-3.1c0.4-1.3,1.7-2.1,3.1-1.8l9.4,2.5
	c1.3,0.4,2.1,1.7,1.8,3.1C44.2,75.9,43.2,76.7,42.1,76.7z"/>
<path class="st0" d="M32.7,92.4c-1.1,0-2.1-0.7-2.4-1.9c-0.4-1.3,0.4-2.7,1.8-3.1l9.4-2.5c1.3-0.4,2.7,0.4,3.1,1.8
	c0.4,1.3-0.4,2.7-1.8,3.1l-9.4,2.5C33.1,92.4,32.9,92.4,32.7,92.4z"/>
<path class="st0" d="M41.8,108.2c-0.6,0-1.3-0.2-1.8-0.7c-1-1-1-2.6,0-3.5l6.9-6.9c1-1,2.6-1,3.5,0c1,1,1,2.6,0,3.5l-6.9,6.9
	C43.1,107.9,42.5,108.2,41.8,108.2z"/>
<path class="st0" d="M57.6,117.3c-0.2,0-0.4,0-0.6-0.1c-1.3-0.4-2.1-1.7-1.8-3.1l2.5-9.4c0.4-1.3,1.7-2.1,3.1-1.8
	c1.3,0.4,2.1,1.7,1.8,3.1l-2.5,9.4C59.7,116.6,58.7,117.3,57.6,117.3z"/>
<path class="st0" d="M75.8,117.3c-1.1,0-2.1-0.7-2.4-1.9l-2.5-9.4c-0.4-1.3,0.4-2.7,1.8-3.1c1.3-0.4,2.7,0.4,3.1,1.8l2.5,9.4
	c0.4,1.3-0.4,2.7-1.8,3.1C76.3,117.3,76.1,117.3,75.8,117.3z"/>
<path class="st0" d="M91.6,108.2c-0.6,0-1.3-0.2-1.8-0.7l-6.9-6.9c-1-1-1-2.6,0-3.5c1-1,2.6-1,3.5,0l6.9,6.9c1,1,1,2.6,0,3.5
	C92.9,107.9,92.3,108.2,91.6,108.2z"/>
<path class="st0" d="M100.7,92.4c-0.2,0-0.4,0-0.7-0.1l-9.4-2.5c-1.3-0.4-2.1-1.7-1.8-3.1c0.4-1.3,1.7-2.1,3.1-1.8l9.4,2.5
	c1.3,0.4,2.1,1.7,1.8,3.1C102.9,91.7,101.8,92.4,100.7,92.4z"/>
<path class="st0" d="M91.4,76.7c-1.1,0-2.1-0.7-2.4-1.9c-0.4-1.3,0.4-2.7,1.8-3.1l9.4-2.5c1.3-0.4,2.7,0.4,3.1,1.8
	c0.4,1.3-0.4,2.7-1.8,3.1L92,76.6C91.8,76.6,91.6,76.7,91.4,76.7z"/>
<path class="st0" d="M84.8,65.2c-0.6,0-1.3-0.2-1.8-0.7c-1-1-1-2.6,0-3.5l6.9-6.9c1-1,2.6-1,3.5,0c1,1,1,2.6,0,3.5l-6.9,6.9
	C86,65,85.4,65.2,84.8,65.2z"/>
<path class="st0" d="M73.3,58.6c-0.2,0-0.4,0-0.6-0.1c-1.3-0.4-2.1-1.7-1.8-3.1l2.5-9.4c0.4-1.3,1.7-2.1,3.1-1.8
	c1.3,0.4,2.1,1.7,1.8,3.1l-2.5,9.4C75.4,57.9,74.4,58.6,73.3,58.6z"/>
</svg>
