<?xml version="1.0" encoding="utf-8"?>
<!-- Generator: Adobe Illustrator 21.0.0, SVG Export Plug-In . SVG Version: 6.00 Build 0)  -->
<svg version="1.1" id="Calque_1" xmlns="http://www.w3.org/2000/svg" xmlns:xlink="http://www.w3.org/1999/xlink" x="0px" y="0px"
	 viewBox="0 0 283.5 283.5" style="enable-background:new 0 0 283.5 283.5;" xml:space="preserve">
<style type="text/css">
	.st0{fill:#1D1D1B;}
</style>
<title>icons</title>
<path class="st0" d="M140.9,227c-1.5,0-2.8-0.8-3.5-2.1l-16.2-29.4c-1.1-1.9-0.4-4.4,1.6-5.4c1.9-1.1,4.4-0.4,5.4,1.6l12.7,23
	l12.7-23c1.1-1.9,3.5-2.6,5.4-1.6c1.9,1.1,2.6,3.5,1.6,5.4l-16.2,29.4C143.7,226.2,142.3,227,140.9,227z"/>
<path class="st0" d="M141.7,249.3c-57.5,0-104.2-46.7-104.2-104.2c0-57.5,46.7-104.2,104.2-104.2s104.2,46.7,104.2,104.2
	C245.9,202.6,199.2,249.3,141.7,249.3z M141.7,50.9c-51.9,0-94.2,42.3-94.2,94.2c0,51.9,42.3,94.2,94.2,94.2s94.2-42.3,94.2-94.2
	C235.9,93.1,193.7,50.9,141.7,50.9z"/>
<path class="st0" d="M157.1,103.1h-32.4c-2.2,0-4-1.8-4-4V79.2c0-2.2,1.8-4,4-4h32.4c2.2,0,4,1.8,4,4v19.9
	C161.1,101.3,159.3,103.1,157.1,103.1z M128.7,95.1h24.4V83.2h-24.4V95.1z"/>
<polygon class="st0" points="140.9,223 134.9,212.2 146.9,212.2 "/>
<path class="st0" d="M157.1,197.6c-2.2,0-4-1.8-4-4c0-0.8-0.6-1.4-1.4-1.4s-1.4,0.6-1.4,1.4c0,2.2-1.8,4-4,4s-4-1.8-4-4
	c0-0.8-0.6-1.4-1.4-1.4c-0.8,0-1.4,0.6-1.4,1.4c0,2.2-1.8,4-4,4s-4-1.8-4-4c0-0.8-0.6-1.4-1.4-1.4s-1.4,0.6-1.4,1.4c0,2.2-1.8,4-4,4
	s-4-1.8-4-4V99.1c0-2.2,1.8-4,4-4h32.4c2.2,0,4,1.8,4,4v94.5C161.1,195.8,159.3,197.6,157.1,197.6z M130.1,184.2
	c2,0,3.9,0.6,5.4,1.7c1.5-1.1,3.4-1.7,5.4-1.7c2,0,3.9,0.6,5.4,1.7c1.5-1.1,3.4-1.7,5.4-1.7c0.5,0,0.9,0,1.4,0.1v-81.2h-24.4v81.2
	C129.1,184.3,129.6,184.2,130.1,184.2z"/>
<path class="st0" d="M135.5,195.6c-1.1,0-2-0.9-2-2V99.1c0-1.1,0.9-2,2-2s2,0.9,2,2v94.5C137.5,194.7,136.6,195.6,135.5,195.6z"/>
<path class="st0" d="M146.3,195.6c-1.1,0-2-0.9-2-2V99.1c0-1.1,0.9-2,2-2s2,0.9,2,2v94.5C148.3,194.7,147.4,195.6,146.3,195.6z"/>
</svg>
