<?xml version="1.0" encoding="utf-8"?>
<!-- Generator: Adobe Illustrator 21.0.0, SVG Export Plug-In . SVG Version: 6.00 Build 0)  -->
<svg version="1.1" id="Calque_1" xmlns="http://www.w3.org/2000/svg" xmlns:xlink="http://www.w3.org/1999/xlink" x="0px" y="0px"
	 viewBox="0 0 283.5 283.5" style="enable-background:new 0 0 283.5 283.5;" xml:space="preserve">
<style type="text/css">
	.st0{fill:#FFD400;}
	.st1{fill:none;stroke:#FFB600;stroke-width:17;stroke-linecap:round;stroke-linejoin:round;stroke-miterlimit:10;}
	.st2{fill:#FFB600;}
	.st3{fill:#1D1D1B;}
	.st4{fill:url(#);}
</style>
<polygon class="st0" points="54,91.1 54,192.4 141.7,243.1 229.5,192.4 229.5,91.1 141.7,40.4 "/>
<polyline class="st1" points="116.1,202.2 118,203.3 143.5,218 209.6,179.9 209.6,103.6 143.5,65.4 116.3,81.2 "/>
<g>
	<path class="st2" d="M142.9,137.9c-2.3,0-3.4-0.8-3.4-2.3c0-1.1,0.8-2.6,2.4-4.3c3.1-3.3,4.6-6.6,4.6-9.7c0-2.8-0.3-5.8-0.8-8.8
		c-1-5.9-2.6-8.8-5-8.8c-0.9,0-1.6,0.3-2.2,1c-0.6,0.7-1,1.4-1.3,2.2c-0.3,0.8-0.7,1.5-1.3,2.2c-0.6,0.7-1.4,1-2.3,1
		s-1.7-0.3-2.3-0.9s-1-1.3-1.1-2.1c1-2.5,2.4-4.5,4.3-6.1c1.8-1.6,3.8-2.4,5.9-2.4c2.1,0,3.9,0.6,5.2,1.7c1.4,1.1,2.4,2.5,3.2,4.2
		c0.8,1.7,1.4,3.7,1.9,5.9c0.8,3.7,1.2,7,1.2,9.8s-0.2,4.7-0.5,5.8c-0.3,1-0.7,1.8-1,2.4c-0.3,0.6-0.9,1.4-1.7,2.6
		c-0.8,1.2-1.4,2-1.7,2.4c4.5,2.7,7.4,10.3,8.8,22.8c0.3,2.7,0.4,5.1,0.4,7c0,2,0,3.6-0.1,4.9c-0.1,1.3-0.2,2.8-0.5,4.5
		c-0.2,1.7-0.6,3.2-1.1,4.5c-0.6,1.3-1.3,2.5-2,3.7c-1.6,2.4-4.2,3.5-7.7,3.5c-2.8,0-4.8-0.6-6.1-1.7c-1.3-1.1-2-2.2-2-3.1
		c0-0.9,0.1-1.5,0.3-1.8c0.2-0.2,0.7-0.4,1.4-0.4c0.7,0,1.3,0.2,1.7,0.6c1.6,1.1,2.9,1.7,3.9,1.8c4.5,0,6.7-4.1,6.7-12.4
		c0-10.8-1-18.5-2.9-23.3c-1-2.4-2.2-4.5-3.8-6.5C143.8,137.8,143.4,137.9,142.9,137.9z"/>
</g>
</svg>
