<?xml version="1.0" encoding="utf-8"?>
<!-- Generator: Adobe Illustrator 21.0.0, SVG Export Plug-In . SVG Version: 6.00 Build 0)  -->
<svg version="1.1" id="Calque_1" xmlns="http://www.w3.org/2000/svg" xmlns:xlink="http://www.w3.org/1999/xlink" x="0px" y="0px"
	 viewBox="0 0 283.5 283.5" style="enable-background:new 0 0 283.5 283.5;" xml:space="preserve">
<style type="text/css">
	.st0{fill:#FFD400;}
	.st1{fill:none;stroke:#FFB600;stroke-width:17;stroke-linecap:round;stroke-linejoin:round;stroke-miterlimit:10;}
	.st2{fill:#FFB600;}
	.st3{fill:#1D1D1B;}
	.st4{fill:url(#);}
</style>
<polygon class="st0" points="54,91.1 54,192.4 141.7,243.1 229.5,192.4 229.5,91.1 141.7,40.4 "/>
<polyline class="st1" points="116.1,202.2 118,203.3 143.5,218 209.6,179.9 209.6,103.6 143.5,65.4 116.3,81.2 "/>
<g>
	<path class="st2" d="M142.6,188.6l-3.4,0.1c-1.3,0-2.2-0.2-2.7-0.6s-0.8-1.1-0.8-2.2c0-1.1,0.2-1.8,0.5-2.1
		c0.4-0.3,1.3-0.4,2.7-0.4c1.5,0,2.2-0.6,2.2-1.9c0-7.4-0.6-18.5-1.7-33.2c-1.1-14.7-1.7-25.6-1.7-32.7l0.2-4.2
		c0-3.5-1.3-5.3-3.9-5.3l-2.6,0.1c-2.1,0-3.2-0.8-3.2-2.4c0-2,3-3,9.1-3c3.2,0,5.1,0.6,5.8,1.9c-0.4,2.1-0.7,4-0.7,5.7
		c0,1.7,0.3,4.9,0.9,9.5c0.6,4.6,0.9,9,0.9,13.1c0,4.1,0.4,12.2,1.2,24.2c0.8,12,1.2,20.9,1.2,26.9v0.7c1.8-0.2,3.2-0.3,4.2-0.3
		v-0.1c3.2,0,4.8,0.9,4.8,2.8C155.5,187.5,151.2,188.6,142.6,188.6z"/>
</g>
</svg>
