<?xml version="1.0" encoding="utf-8"?>
<!-- Generator: Adobe Illustrator 21.0.0, SVG Export Plug-In . SVG Version: 6.00 Build 0)  -->
<svg version="1.1" id="Calque_1" xmlns="http://www.w3.org/2000/svg" xmlns:xlink="http://www.w3.org/1999/xlink" x="0px" y="0px"
	 viewBox="0 0 283.5 283.5" style="enable-background:new 0 0 283.5 283.5;" xml:space="preserve">
<style type="text/css">
	.st0{clip-path:url(#SVGID_2_);}
	.st1{fill:#1D1D1B;}
	.st2{clip-path:url(#SVGID_4_);}
</style>
<title>icons</title>
<g>
	<defs>
		<path id="SVGID_1_" d="M213.2,213.9c-38,39.5-100.8,40.7-140.3,2.7S32.2,115.8,70.2,76.3S171,35.6,210.5,73.6
			c19.4,18.7,30.4,44.5,30.4,71.5C241,170.7,231,195.4,213.2,213.9"/>
	</defs>
	<clipPath id="SVGID_2_">
		<use xlink:href="#SVGID_1_"  style="overflow:visible;"/>
	</clipPath>
	<g class="st0">
		<path class="st1" d="M175.8,254.8h-69.5c-2.2,0-4-1.8-4-4v-55.1c0-2.2,1.8-4,4-4h69.5c2.2,0,4,1.8,4,4v55.1
			C179.8,253,178,254.8,175.8,254.8z M110.3,246.8h61.5v-47.1h-61.5V246.8z"/>
	</g>
</g>
<rect x="75.2" y="67.8" class="st1" width="8" height="154"/>
<rect x="200.3" y="67.8" class="st1" width="8" height="154"/>
<path class="st1" d="M176.3,176.6h-69.5c-2.2,0-4-1.8-4-4v-55.1c0-2.2,1.8-4,4-4h69.5c2.2,0,4,1.8,4,4v55.1
	C180.3,174.8,178.5,176.6,176.3,176.6z M110.7,168.6h61.5v-47.1h-61.5V168.6z"/>
<path class="st1" d="M94.6,91.2h-3.5c-2.2,0-4-1.8-4-4v-8c0-2.2,1.8-4,4-4h3.5c2.2,0,4,1.8,4,4v8C98.6,89.4,96.8,91.2,94.6,91.2z"/>
<path class="st1" d="M94.6,70.7H91c-2.2,0-4-1.8-4-4v-8c0-2.2,1.8-4,4-4h3.5c2.2,0,4,1.8,4,4v8C98.6,68.9,96.8,70.7,94.6,70.7z"/>
<path class="st1" d="M94.6,111.7h-3.5c-2.2,0-4-1.8-4-4v-8c0-2.2,1.8-4,4-4h3.5c2.2,0,4,1.8,4,4v8C98.6,109.9,96.8,111.7,94.6,111.7
	z"/>
<path class="st1" d="M94.6,132.2H91c-2.2,0-4-1.8-4-4v-8c0-2.2,1.8-4,4-4h3.5c2.2,0,4,1.8,4,4v8C98.6,130.4,96.8,132.2,94.6,132.2z"
	/>
<path class="st1" d="M94.7,152.7h-3.5c-2.2,0-4-1.8-4-4v-8c0-2.2,1.8-4,4-4h3.5c2.2,0,4,1.8,4,4v8C98.7,150.9,96.9,152.7,94.7,152.7
	z"/>
<path class="st1" d="M94.7,173.2h-3.5c-2.2,0-4-1.8-4-4v-8c0-2.2,1.8-4,4-4h3.5c2.2,0,4,1.8,4,4v8C98.7,171.4,96.9,173.2,94.7,173.2
	z"/>
<path class="st1" d="M94.6,193.7h-3.5c-2.2,0-4-1.8-4-4v-8c0-2.2,1.8-4,4-4h3.5c2.2,0,4,1.8,4,4v8C98.6,191.9,96.8,193.7,94.6,193.7
	z"/>
<path class="st1" d="M94.7,214.2h-3.5c-2.2,0-4-1.8-4-4v-8c0-2.2,1.8-4,4-4h3.5c2.2,0,4,1.8,4,4v8C98.7,212.4,96.9,214.2,94.7,214.2
	z"/>
<path class="st1" d="M94.7,234.7h-3.5c-2.2,0-4-1.8-4-4v-8c0-2.2,1.8-4,4-4h3.5c2.2,0,4,1.8,4,4v8C98.7,232.9,96.9,234.7,94.7,234.7
	z"/>
<path class="st1" d="M193.7,91.6h-3.5c-2.2,0-4-1.8-4-4v-8c0-2.2,1.8-4,4-4h3.5c2.2,0,4,1.8,4,4v8C197.7,89.8,195.9,91.6,193.7,91.6
	z"/>
<path class="st1" d="M193.6,72.1h-3.5c-2.2,0-4-1.8-4-4v-8c0-2.2,1.8-4,4-4h3.5c2.2,0,4,1.8,4,4v8C197.6,70.3,195.8,72.1,193.6,72.1
	z"/>
<path class="st1" d="M193.7,112.1h-3.5c-2.2,0-4-1.8-4-4v-8c0-2.2,1.8-4,4-4h3.5c2.2,0,4,1.8,4,4v8
	C197.7,110.3,195.9,112.1,193.7,112.1z"/>
<path class="st1" d="M193.6,132.6h-3.5c-2.2,0-4-1.8-4-4v-8c0-2.2,1.8-4,4-4h3.5c2.2,0,4,1.8,4,4v8
	C197.6,130.8,195.8,132.6,193.6,132.6z"/>
<path class="st1" d="M193.7,153.1h-3.5c-2.2,0-4-1.8-4-4v-8c0-2.2,1.8-4,4-4h3.5c2.2,0,4,1.8,4,4v8
	C197.7,151.3,195.9,153.1,193.7,153.1z"/>
<path class="st1" d="M193.7,173.6h-3.5c-2.2,0-4-1.8-4-4v-8c0-2.2,1.8-4,4-4h3.5c2.2,0,4,1.8,4,4v8
	C197.7,171.8,195.9,173.6,193.7,173.6z"/>
<path class="st1" d="M193.6,194.1h-3.5c-2.2,0-4-1.8-4-4v-8c0-2.2,1.8-4,4-4h3.5c2.2,0,4,1.8,4,4v8
	C197.6,192.3,195.8,194.1,193.6,194.1z"/>
<path class="st1" d="M193.7,214.6h-3.5c-2.2,0-4-1.8-4-4v-8c0-2.2,1.8-4,4-4h3.5c2.2,0,4,1.8,4,4v8
	C197.7,212.8,195.9,214.6,193.7,214.6z"/>
<path class="st1" d="M193.7,234.1h-3.5c-2.2,0-4-1.8-4-4v-8c0-2.2,1.8-4,4-4h3.5c2.2,0,4,1.8,4,4v8
	C197.7,232.3,195.9,234.1,193.7,234.1z"/>
<path class="st1" d="M141.7,249.3c-26,0-52-9.6-72.2-29c-41.4-39.8-42.7-105.9-2.9-147.3c19.3-20.1,45.2-31.4,73.1-32
	c27.8-0.5,54.2,9.8,74.3,29.1c20.3,19.5,32,46.9,32,75.1c0,27.1-10.3,52.7-29.1,72.2C196.4,238.6,169.1,249.3,141.7,249.3z
	 M141.8,50.9c-0.6,0-1.3,0-1.9,0c-25.2,0.5-48.6,10.8-66.1,28.9C37.8,117.2,39,177,76.4,213c18.2,17.5,41.8,26.3,65.3,26.3
	c24.7,0,49.5-9.7,67.9-28.9l0,0c17-17.6,26.3-40.8,26.3-65.3c0-25.5-10.5-50.2-28.9-67.9C189.3,60.2,166.2,50.9,141.8,50.9z"/>
<g>
	<defs>
		<path id="SVGID_3_" d="M213.2,213.9c-38,39.5-100.8,40.7-140.3,2.7S32.2,115.8,70.2,76.3S171,35.6,210.5,73.6
			c19.4,18.7,30.4,44.5,30.4,71.5C241,170.7,231,195.4,213.2,213.9"/>
	</defs>
	<clipPath id="SVGID_4_">
		<use xlink:href="#SVGID_3_"  style="overflow:visible;"/>
	</clipPath>
	<g class="st2">
		<path class="st1" d="M176.3,98.5h-69.5c-2.2,0-4-1.8-4-4V39.4c0-2.2,1.8-4,4-4h69.5c2.2,0,4,1.8,4,4v55.1
			C180.3,96.7,178.5,98.5,176.3,98.5z M110.7,90.5h61.5V43.4h-61.5V90.5z"/>
	</g>
</g>
</svg>
