<?xml version="1.0" encoding="utf-8"?>
<!-- Generator: Adobe Illustrator 21.0.0, SVG Export Plug-In . SVG Version: 6.00 Build 0)  -->
<svg version="1.1" xmlns="http://www.w3.org/2000/svg" xmlns:xlink="http://www.w3.org/1999/xlink" x="0px" y="0px"
	 viewBox="0 0 283.5 283.5" style="enable-background:new 0 0 283.5 283.5;" xml:space="preserve">
<style type="text/css">
	.st0{clip-path:url(#SVGID_2_);fill:none;stroke:#1D1D1B;stroke-width:8;stroke-linejoin:round;stroke-miterlimit:10;}
	.st1{fill:none;stroke:#1D1D1B;stroke-width:10;stroke-miterlimit:10;}
	.st2{fill:none;stroke:#1D1D1B;stroke-width:8;stroke-linecap:round;stroke-linejoin:round;stroke-miterlimit:10;}
	.st3{fill:none;stroke:#1D1D1B;stroke-width:10;stroke-linecap:round;stroke-linejoin:round;}
	.st4{fill:none;stroke:#1D1D1B;stroke-width:10;stroke-linecap:round;stroke-linejoin:round;stroke-dasharray:0.9527,20.9601;}
	.st5{fill:none;stroke:#1D1D1B;stroke-width:10;stroke-linecap:round;stroke-linejoin:round;stroke-miterlimit:10;}
	.st6{fill:#1D1D1B;}
	.st7{fill:#FFFFFF;stroke:#1D1D1B;stroke-width:5;stroke-linecap:round;stroke-linejoin:round;stroke-miterlimit:10;}
	.st8{fill:none;stroke:#1D1D1B;stroke-width:8;stroke-linejoin:round;stroke-miterlimit:10;}
	.st9{fill:none;stroke:#1D1D1B;stroke-width:8;stroke-miterlimit:10;}
	.st10{fill:none;stroke:#1D1D1B;stroke-width:4;stroke-linecap:round;stroke-linejoin:round;stroke-miterlimit:10;}
	.st11{fill:none;stroke:#1D1D1B;stroke-width:17;stroke-linecap:round;stroke-miterlimit:10;}
	.st12{fill:none;stroke:#1D1D1B;stroke-width:8;stroke-linecap:round;stroke-miterlimit:10;}
	.st13{fill:#FFFFFF;stroke:#1D1D1B;stroke-width:8;stroke-linecap:round;stroke-linejoin:round;stroke-miterlimit:10;}
	.st14{fill:none;stroke:#1D1D1B;stroke-width:10;stroke-linecap:round;stroke-miterlimit:10;}
	.st15{clip-path:url(#SVGID_4_);fill:none;stroke:#1D1D1B;stroke-width:8;stroke-linejoin:round;stroke-miterlimit:10;}
	.st16{fill:#FFFFFF;}
</style>
<g id="Calque_1">
	<path class="st5" d="M103.1,53.7c11.9-5,24.9-7.8,38.7-7.8c54.8,0,99.2,44.4,99.2,99.2c0,17.8-4.7,34.5-12.9,49"/>
	<path class="st5" d="M193,230c-15,9-32.5,14.3-51.3,14.3c-54.8,0-99.2-44.4-99.2-99.2c0-8.7,1.1-17.1,3.2-25.1"/>
	<line class="st11" x1="181.4" y1="184.2" x2="208.9" y2="211.7"/>
	<circle class="st9" cx="141.5" cy="144.3" r="50.7"/>
	<circle class="st9" cx="141.5" cy="144.3" r="36.8"/>
	<g>
		<line class="st7" x1="60.1" y1="56.1" x2="57.6" y2="46.8"/>
		<line class="st7" x1="48.7" y1="62.7" x2="41.8" y2="55.9"/>
		<line class="st7" x1="42.1" y1="74.2" x2="32.7" y2="71.7"/>
		<line class="st7" x1="42.1" y1="87.4" x2="32.7" y2="89.9"/>
		<line class="st7" x1="48.7" y1="98.8" x2="41.8" y2="105.7"/>
		<line class="st7" x1="60.1" y1="105.4" x2="57.6" y2="114.8"/>
		<line class="st7" x1="73.3" y1="105.4" x2="75.8" y2="114.8"/>
		<line class="st7" x1="84.8" y1="98.8" x2="91.6" y2="105.7"/>
		<line class="st7" x1="91.4" y1="87.4" x2="100.7" y2="89.9"/>
		<line class="st7" x1="91.4" y1="74.2" x2="100.7" y2="71.7"/>
		<line class="st7" x1="84.8" y1="62.7" x2="91.6" y2="55.9"/>
		<line class="st7" x1="73.3" y1="56.1" x2="75.8" y2="46.8"/>
	</g>
</g>
<g id="Calque_2">
</g>
</svg>
